<?xml version="1.0" encoding="utf-8" standalone="no"?>
<!DOCTYPE svg PUBLIC "-//W3C//DTD SVG 1.1//EN"
  "http://www.w3.org/Graphics/SVG/1.1/DTD/svg11.dtd">
<svg xmlns:xlink="http://www.w3.org/1999/xlink" width="957.8pt" height="342.2pt" viewBox="0 0 957.8 342.2" xmlns="http://www.w3.org/2000/svg" version="1.1">
 <metadata>
  <rdf:RDF xmlns:dc="http://purl.org/dc/elements/1.1/" xmlns:cc="http://creativecommons.org/ns#" xmlns:rdf="http://www.w3.org/1999/02/22-rdf-syntax-ns#">
   <cc:Work>
    <dc:type rdf:resource="http://purl.org/dc/dcmitype/StillImage"/>
    <dc:date>2026-07-06T09:59:11.722863</dc:date>
    <dc:format>image/svg+xml</dc:format>
    <dc:creator>
     <cc:Agent>
      <dc:title>Matplotlib v3.10.0, https://matplotlib.org/</dc:title>
     </cc:Agent>
    </dc:creator>
   </cc:Work>
  </rdf:RDF>
 </metadata>
 <defs>
  <style type="text/css">*{stroke-linejoin: round; stroke-linecap: butt}</style>
 </defs>
 <g id="figure_1">
  <g id="patch_1">
   <path d="M 0 342.2 
L 957.8 342.2 
L 957.8 0 
L 0 0 
z
" style="fill: #ffffff"/>
  </g>
  <g id="axes_1">
   <g id="patch_2">
    <path d="M 34.990992 110.952 
L 126.815258 110.952 
Q 127.797967 110.952 127.797967 109.852 
L 127.797967 71.748 
Q 127.797967 70.648 126.815258 70.648 
L 34.990992 70.648 
Q 34.008283 70.648 34.008283 71.748 
L 34.008283 109.852 
Q 34.008283 110.952 34.990992 110.952 
z
" clip-path="url(#pc366ead9a7)" style="fill: #e9f1f7; stroke: #222222; stroke-linejoin: miter"/>
   </g>
   <g id="patch_3">
    <path d="M 154.881408 110.952 
L 250.636508 110.952 
Q 251.619217 110.952 251.619217 109.852 
L 251.619217 71.748 
Q 251.619217 70.648 250.636508 70.648 
L 154.881408 70.648 
Q 153.8987 70.648 153.8987 71.748 
L 153.8987 109.852 
Q 153.8987 110.952 154.881408 110.952 
z
" clip-path="url(#pc366ead9a7)" style="fill: #f5f5f5; stroke: #222222; stroke-linejoin: miter"/>
   </g>
   <g id="patch_4">
    <path d="M 280.668075 112.712 
L 413.766092 112.712 
Q 414.7488 112.712 414.7488 111.612 
L 414.7488 71.748 
Q 414.7488 70.648 413.766092 70.648 
L 280.668075 70.648 
Q 279.685367 70.648 279.685367 71.748 
L 279.685367 111.612 
Q 279.685367 112.712 280.668075 112.712 
z
" clip-path="url(#pc366ead9a7)" style="fill: #fff0d6; stroke: #222222; stroke-linejoin: miter"/>
   </g>
   <g id="patch_5">
    <path d="M 48.748908 186.192 
L 158.261925 186.192 
Q 159.244633 186.192 159.244633 185.092 
L 159.244633 149.628 
Q 159.244633 148.528 158.261925 148.528 
L 48.748908 148.528 
Q 47.7662 148.528 47.7662 149.628 
L 47.7662 185.092 
Q 47.7662 186.192 48.748908 186.192 
z
" clip-path="url(#pc366ead9a7)" style="fill: #f1ecf7; stroke: #222222; stroke-linejoin: miter"/>
   </g>
   <g id="patch_6">
    <path d="M 186.328075 186.192 
L 299.771925 186.192 
Q 300.754633 186.192 300.754633 185.092 
L 300.754633 149.628 
Q 300.754633 148.528 299.771925 148.528 
L 186.328075 148.528 
Q 185.345367 148.528 185.345367 149.628 
L 185.345367 185.092 
Q 185.345367 186.192 186.328075 186.192 
z
" clip-path="url(#pc366ead9a7)" style="fill: #eaf4ea; stroke: #222222; stroke-linejoin: miter"/>
   </g>
   <g id="patch_7">
    <path d="M 325.872658 186.192 
L 407.869842 186.192 
Q 408.85255 186.192 408.85255 185.092 
L 408.85255 149.628 
Q 408.85255 148.528 407.869842 148.528 
L 325.872658 148.528 
Q 324.88995 148.528 324.88995 149.628 
L 324.88995 185.092 
Q 324.88995 186.192 325.872658 186.192 
z
" clip-path="url(#pc366ead9a7)" style="fill: #eaf4ea; stroke: #222222; stroke-linejoin: miter"/>
   </g>
   <g id="patch_8">
    <path d="M 130.089884 90.8 
Q 140.847218 90.8 150.598321 90.8 
" clip-path="url(#pc366ead9a7)" style="fill: none; stroke: #222222; stroke-width: 0.9; stroke-linecap: round"/>
    <path d="M 147.318321 89.16 
L 150.598321 90.8 
L 147.318321 92.44 
z
" clip-path="url(#pc366ead9a7)" style="fill: #222222; stroke: #222222; stroke-width: 0.9; stroke-linecap: round"/>
   </g>
   <g id="patch_9">
    <path d="M 253.909455 90.889482 
Q 265.652762 91.240014 276.390287 91.560524 
" clip-path="url(#pc366ead9a7)" style="fill: none; stroke: #222222; stroke-width: 0.9; stroke-linecap: round"/>
    <path d="M 273.160679 89.823391 
L 276.390287 91.560524 
L 273.062816 93.101931 
z
" clip-path="url(#pc366ead9a7)" style="fill: #222222; stroke: #222222; stroke-width: 0.9; stroke-linecap: round"/>
   </g>
   <g id="patch_10">
    <path d="M 347.217083 60.360937 
Q 347.217083 64.40063 347.217083 67.489993 
" clip-path="url(#pc366ead9a7)" style="fill: none; stroke: #222222; stroke-width: 0.85; stroke-linecap: round"/>
    <path d="M 348.817083 64.289993 
L 347.217083 67.489993 
L 345.617083 64.289993 
z
" clip-path="url(#pc366ead9a7)" style="fill: #222222; stroke: #222222; stroke-width: 0.85; stroke-linecap: round"/>
   </g>
   <g id="patch_11">
    <path d="M 103.505417 134.279326 
Q 103.505417 140.299635 103.505417 145.336074 
" clip-path="url(#pc366ead9a7)" style="fill: none; stroke: #222222; stroke-width: 0.88; stroke-linecap: round"/>
    <path d="M 105.145417 142.056074 
L 103.505417 145.336074 
L 101.865417 142.056074 
z
" clip-path="url(#pc366ead9a7)" style="fill: #222222; stroke: #222222; stroke-width: 0.88; stroke-linecap: round"/>
   </g>
   <g id="patch_12">
    <path d="M 161.536551 167.36 
Q 172.293885 167.36 182.067348 167.36 
" clip-path="url(#pc366ead9a7)" style="fill: none; stroke: #222222; stroke-width: 0.88; stroke-linecap: round"/>
    <path d="M 178.787348 165.72 
L 182.067348 167.36 
L 178.787348 169 
z
" clip-path="url(#pc366ead9a7)" style="fill: #222222; stroke: #222222; stroke-width: 0.88; stroke-linecap: round"/>
   </g>
   <g id="patch_13">
    <path d="M 303.044392 167.36 
Q 312.821902 167.36 321.615542 167.36 
" clip-path="url(#pc366ead9a7)" style="fill: none; stroke: #222222; stroke-width: 0.88; stroke-linecap: round"/>
    <path d="M 318.335542 165.72 
L 321.615542 167.36 
L 318.335542 169 
z
" clip-path="url(#pc366ead9a7)" style="fill: #222222; stroke: #222222; stroke-width: 0.88; stroke-linecap: round"/>
   </g>
   <g id="patch_14">
    <path d="M 469.348075 106.992 
L 569.034008 106.992 
Q 570.016717 106.992 570.016717 105.892 
L 570.016717 70.428 
Q 570.016717 69.328 569.034008 69.328 
L 469.348075 69.328 
Q 468.365367 69.328 468.365367 70.428 
L 468.365367 105.892 
Q 468.365367 106.992 469.348075 106.992 
z
" clip-path="url(#pc366ead9a7)" style="fill: #fff5e8; stroke: #222222; stroke-linejoin: miter"/>
   </g>
   <g id="patch_15">
    <path d="M 597.100158 106.992 
L 673.201092 106.992 
Q 674.1838 106.992 674.1838 105.892 
L 674.1838 70.428 
Q 674.1838 69.328 673.201092 69.328 
L 597.100158 69.328 
Q 596.11745 69.328 596.11745 70.428 
L 596.11745 105.892 
Q 596.11745 106.992 597.100158 106.992 
z
" clip-path="url(#pc366ead9a7)" style="fill: #fff5e8; stroke: #222222; stroke-linejoin: miter"/>
   </g>
   <g id="patch_16">
    <path d="M 703.232658 106.992 
L 791.126092 106.992 
Q 792.1088 106.992 792.1088 105.892 
L 792.1088 70.428 
Q 792.1088 69.328 791.126092 69.328 
L 703.232658 69.328 
Q 702.24995 69.328 702.24995 70.428 
L 702.24995 105.892 
Q 702.24995 106.992 703.232658 106.992 
z
" clip-path="url(#pc366ead9a7)" style="fill: #fff5e8; stroke: #222222; stroke-linejoin: miter"/>
   </g>
   <g id="patch_17">
    <path d="M 572.308634 88.16 
Q 583.065968 88.16 592.839432 88.16 
" clip-path="url(#pc366ead9a7)" style="fill: none; stroke: #222222; stroke-width: 0.88; stroke-linecap: round"/>
    <path d="M 589.559432 86.52 
L 592.839432 88.16 
L 589.559432 89.8 
z
" clip-path="url(#pc366ead9a7)" style="fill: #222222; stroke: #222222; stroke-width: 0.88; stroke-linecap: round"/>
   </g>
   <g id="patch_18">
    <path d="M 676.474038 88.16 
Q 688.217346 88.16 698.976783 88.16 
" clip-path="url(#pc366ead9a7)" style="fill: none; stroke: #222222; stroke-width: 0.88; stroke-linecap: round"/>
    <path d="M 695.696783 86.52 
L 698.976783 88.16 
L 695.696783 89.8 
z
" clip-path="url(#pc366ead9a7)" style="fill: #222222; stroke: #222222; stroke-width: 0.88; stroke-linecap: round"/>
   </g>
   <g id="patch_19">
    <path d="M 469.348075 212.592 
L 795.056925 212.592 
Q 796.039633 212.592 796.039633 211.492 
L 796.039633 168.988 
Q 796.039633 167.888 795.056925 167.888 
L 469.348075 167.888 
Q 468.365367 167.888 468.365367 168.988 
L 468.365367 211.492 
Q 468.365367 212.592 469.348075 212.592 
z
" clip-path="url(#pc366ead9a7)" style="fill: #fbe9ea; stroke: #222222; stroke-width: 1.05; stroke-linejoin: miter"/>
   </g>
   <g id="patch_20">
    <path d="M 452.417738 190.24 
Q 459.24693 190.24 465.092253 190.24 
" clip-path="url(#pc366ead9a7)" style="fill: none; stroke: #222222; stroke-width: 0.88; stroke-linecap: round"/>
    <path d="M 461.812253 188.6 
L 465.092253 190.24 
L 461.812253 191.88 
z
" clip-path="url(#pc366ead9a7)" style="fill: #222222; stroke: #222222; stroke-width: 0.88; stroke-linecap: round"/>
   </g>
   <g id="patch_21">
    <path d="M 747.179375 109.201206 
Q 747.179375 137.439475 747.179375 164.693874 
" clip-path="url(#pc366ead9a7)" style="fill: none; stroke: #222222; stroke-width: 0.88; stroke-linecap: round"/>
    <path d="M 748.819375 161.413874 
L 747.179375 164.693874 
L 745.539375 161.413874 
z
" clip-path="url(#pc366ead9a7)" style="fill: #222222; stroke: #222222; stroke-width: 0.88; stroke-linecap: round"/>
   </g>
   <g id="patch_22">
    <path d="M 840.811825 212.592 
L 938.532342 212.592 
Q 939.51505 212.592 939.51505 211.492 
L 939.51505 168.988 
Q 939.51505 167.888 938.532342 167.888 
L 840.811825 167.888 
Q 839.829117 167.888 839.829117 168.988 
L 839.829117 211.492 
Q 839.829117 212.592 840.811825 212.592 
z
" clip-path="url(#pc366ead9a7)" style="fill: #f3f3f3; stroke: #222222; stroke-width: 0.95; stroke-linejoin: miter"/>
   </g>
   <g id="patch_23">
    <path d="M 837.537559 190.24 
Q 817.935351 190.24 799.317014 190.24 
" clip-path="url(#pc366ead9a7)" style="fill: none; stroke: #222222; stroke-width: 0.88; stroke-linecap: round"/>
    <path d="M 802.597014 191.88 
L 799.317014 190.24 
L 802.597014 188.6 
z
" clip-path="url(#pc366ead9a7)" style="fill: #222222; stroke: #222222; stroke-width: 0.88; stroke-linecap: round"/>
   </g>
   <g id="patch_24">
    <path d="M 492.933075 300.592 
L 610.307758 300.592 
Q 611.290467 300.592 611.290467 299.492 
L 611.290467 263.148 
Q 611.290467 262.048 610.307758 262.048 
L 492.933075 262.048 
Q 491.950367 262.048 491.950367 263.148 
L 491.950367 299.492 
Q 491.950367 300.592 492.933075 300.592 
z
" clip-path="url(#pc366ead9a7)" style="fill: #f1f1fa; stroke: #222222; stroke-linejoin: miter"/>
   </g>
   <g id="patch_25">
    <path d="M 642.304742 308.072 
L 855.984842 308.072 
Q 856.96755 308.072 856.96755 306.972 
L 856.96755 256.548 
Q 856.96755 255.448 855.984842 255.448 
L 642.304742 255.448 
Q 641.322033 255.448 641.322033 256.548 
L 641.322033 306.972 
Q 641.322033 308.072 642.304742 308.072 
z
" clip-path="url(#pc366ead9a7)" style="fill: #e7f5f5; stroke: #222222; stroke-width: 1.05; stroke-linejoin: miter"/>
   </g>
   <g id="patch_26">
    <path d="M 551.620417 214.799971 
Q 551.620417 237.320201 551.620417 258.85656 
" clip-path="url(#pc366ead9a7)" style="fill: none; stroke: #222222; stroke-width: 0.88; stroke-linecap: round"/>
    <path d="M 553.260417 255.57656 
L 551.620417 258.85656 
L 549.980417 255.57656 
z
" clip-path="url(#pc366ead9a7)" style="fill: #222222; stroke: #222222; stroke-width: 0.88; stroke-linecap: round"/>
   </g>
   <g id="patch_27">
    <path d="M 613.580945 281.361948 
Q 626.306779 281.540007 638.04884 281.704302 
" clip-path="url(#pc366ead9a7)" style="fill: none; stroke: #222222; stroke-width: 0.88; stroke-linecap: round"/>
    <path d="M 634.792106 280.018573 
L 638.04884 281.704302 
L 634.746217 283.298252 
z
" clip-path="url(#pc366ead9a7)" style="fill: #222222; stroke: #222222; stroke-width: 0.88; stroke-linecap: round"/>
   </g>
   <g id="line2d_1">
    <path d="M 347.217083 111.92 
L 347.217083 131.28 
" clip-path="url(#pc366ead9a7)" style="fill: none; stroke: #222222; stroke-width: 0.88; stroke-linecap: square"/>
   </g>
   <g id="line2d_2">
    <path d="M 347.217083 131.28 
L 103.505417 131.28 
" clip-path="url(#pc366ead9a7)" style="fill: none; stroke: #222222; stroke-width: 0.88; stroke-linecap: square"/>
   </g>
   <g id="line2d_3">
    <path d="M 408.145 167.36 
L 449.41875 167.36 
" clip-path="url(#pc366ead9a7)" style="fill: none; stroke: #222222; stroke-width: 0.88; stroke-linecap: square"/>
   </g>
   <g id="line2d_4">
    <path d="M 449.41875 167.36 
L 449.41875 190.24 
" clip-path="url(#pc366ead9a7)" style="fill: none; stroke: #222222; stroke-width: 0.88; stroke-linecap: square"/>
   </g>
   <g id="text_1">
    <!-- (a) -->
    <g transform="translate(20.957917 31.4) scale(0.11 -0.11)">
     <defs>
      <path id="DejaVuSans-Bold-28" d="M 2413 -844 
L 1484 -844 
Q 1006 -72 778 623 
Q 550 1319 550 2003 
Q 550 2688 779 3389 
Q 1009 4091 1484 4856 
L 2413 4856 
Q 2013 4116 1813 3408 
Q 1613 2700 1613 2009 
Q 1613 1319 1811 609 
Q 2009 -100 2413 -844 
z
" transform="scale(0.015625)"/>
      <path id="DejaVuSans-Bold-61" d="M 2106 1575 
Q 1756 1575 1579 1456 
Q 1403 1338 1403 1106 
Q 1403 894 1545 773 
Q 1688 653 1941 653 
Q 2256 653 2472 879 
Q 2688 1106 2688 1447 
L 2688 1575 
L 2106 1575 
z
M 3816 1997 
L 3816 0 
L 2688 0 
L 2688 519 
Q 2463 200 2181 54 
Q 1900 -91 1497 -91 
Q 953 -91 614 226 
Q 275 544 275 1050 
Q 275 1666 698 1953 
Q 1122 2241 2028 2241 
L 2688 2241 
L 2688 2328 
Q 2688 2594 2478 2717 
Q 2269 2841 1825 2841 
Q 1466 2841 1156 2769 
Q 847 2697 581 2553 
L 581 3406 
Q 941 3494 1303 3539 
Q 1666 3584 2028 3584 
Q 2975 3584 3395 3211 
Q 3816 2838 3816 1997 
z
" transform="scale(0.015625)"/>
      <path id="DejaVuSans-Bold-29" d="M 513 -844 
Q 913 -100 1113 609 
Q 1313 1319 1313 2009 
Q 1313 2700 1113 3408 
Q 913 4116 513 4856 
L 1441 4856 
Q 1916 4091 2145 3389 
Q 2375 2688 2375 2003 
Q 2375 1319 2147 623 
Q 1919 -72 1441 -844 
L 513 -844 
z
" transform="scale(0.015625)"/>
     </defs>
     <use xlink:href="#DejaVuSans-Bold-28"/>
     <use xlink:href="#DejaVuSans-Bold-61" transform="translate(45.703125 0)"/>
     <use xlink:href="#DejaVuSans-Bold-29" transform="translate(113.183594 0)"/>
    </g>
   </g>
   <g id="text_2">
    <!-- Held-out residual projection -->
    <g transform="translate(42.5775 31.4) scale(0.1 -0.1)">
     <defs>
      <path id="DejaVuSans-Bold-48" d="M 588 4666 
L 1791 4666 
L 1791 2888 
L 3566 2888 
L 3566 4666 
L 4769 4666 
L 4769 0 
L 3566 0 
L 3566 1978 
L 1791 1978 
L 1791 0 
L 588 0 
L 588 4666 
z
" transform="scale(0.015625)"/>
      <path id="DejaVuSans-Bold-65" d="M 4031 1759 
L 4031 1441 
L 1416 1441 
Q 1456 1047 1700 850 
Q 1944 653 2381 653 
Q 2734 653 3104 758 
Q 3475 863 3866 1075 
L 3866 213 
Q 3469 63 3072 -14 
Q 2675 -91 2278 -91 
Q 1328 -91 801 392 
Q 275 875 275 1747 
Q 275 2603 792 3093 
Q 1309 3584 2216 3584 
Q 3041 3584 3536 3087 
Q 4031 2591 4031 1759 
z
M 2881 2131 
Q 2881 2450 2695 2645 
Q 2509 2841 2209 2841 
Q 1884 2841 1681 2658 
Q 1478 2475 1428 2131 
L 2881 2131 
z
" transform="scale(0.015625)"/>
      <path id="DejaVuSans-Bold-6c" d="M 538 4863 
L 1656 4863 
L 1656 0 
L 538 0 
L 538 4863 
z
" transform="scale(0.015625)"/>
      <path id="DejaVuSans-Bold-64" d="M 2919 2988 
L 2919 4863 
L 4044 4863 
L 4044 0 
L 2919 0 
L 2919 506 
Q 2688 197 2409 53 
Q 2131 -91 1766 -91 
Q 1119 -91 703 423 
Q 288 938 288 1747 
Q 288 2556 703 3070 
Q 1119 3584 1766 3584 
Q 2128 3584 2408 3439 
Q 2688 3294 2919 2988 
z
M 2181 722 
Q 2541 722 2730 984 
Q 2919 1247 2919 1747 
Q 2919 2247 2730 2509 
Q 2541 2772 2181 2772 
Q 1825 2772 1636 2509 
Q 1447 2247 1447 1747 
Q 1447 1247 1636 984 
Q 1825 722 2181 722 
z
" transform="scale(0.015625)"/>
      <path id="DejaVuSans-Bold-2d" d="M 347 2297 
L 2309 2297 
L 2309 1388 
L 347 1388 
L 347 2297 
z
" transform="scale(0.015625)"/>
      <path id="DejaVuSans-Bold-6f" d="M 2203 2784 
Q 1831 2784 1636 2517 
Q 1441 2250 1441 1747 
Q 1441 1244 1636 976 
Q 1831 709 2203 709 
Q 2569 709 2762 976 
Q 2956 1244 2956 1747 
Q 2956 2250 2762 2517 
Q 2569 2784 2203 2784 
z
M 2203 3584 
Q 3106 3584 3614 3096 
Q 4122 2609 4122 1747 
Q 4122 884 3614 396 
Q 3106 -91 2203 -91 
Q 1297 -91 786 396 
Q 275 884 275 1747 
Q 275 2609 786 3096 
Q 1297 3584 2203 3584 
z
" transform="scale(0.015625)"/>
      <path id="DejaVuSans-Bold-75" d="M 500 1363 
L 500 3500 
L 1625 3500 
L 1625 3150 
Q 1625 2866 1622 2436 
Q 1619 2006 1619 1863 
Q 1619 1441 1641 1255 
Q 1663 1069 1716 984 
Q 1784 875 1895 815 
Q 2006 756 2150 756 
Q 2500 756 2700 1025 
Q 2900 1294 2900 1772 
L 2900 3500 
L 4019 3500 
L 4019 0 
L 2900 0 
L 2900 506 
Q 2647 200 2364 54 
Q 2081 -91 1741 -91 
Q 1134 -91 817 281 
Q 500 653 500 1363 
z
" transform="scale(0.015625)"/>
      <path id="DejaVuSans-Bold-74" d="M 1759 4494 
L 1759 3500 
L 2913 3500 
L 2913 2700 
L 1759 2700 
L 1759 1216 
Q 1759 972 1856 886 
Q 1953 800 2241 800 
L 2816 800 
L 2816 0 
L 1856 0 
Q 1194 0 917 276 
Q 641 553 641 1216 
L 641 2700 
L 84 2700 
L 84 3500 
L 641 3500 
L 641 4494 
L 1759 4494 
z
" transform="scale(0.015625)"/>
      <path id="DejaVuSans-Bold-20" transform="scale(0.015625)"/>
      <path id="DejaVuSans-Bold-72" d="M 3138 2547 
Q 2991 2616 2845 2648 
Q 2700 2681 2553 2681 
Q 2122 2681 1889 2404 
Q 1656 2128 1656 1613 
L 1656 0 
L 538 0 
L 538 3500 
L 1656 3500 
L 1656 2925 
Q 1872 3269 2151 3426 
Q 2431 3584 2822 3584 
Q 2878 3584 2943 3579 
Q 3009 3575 3134 3559 
L 3138 2547 
z
" transform="scale(0.015625)"/>
      <path id="DejaVuSans-Bold-73" d="M 3272 3391 
L 3272 2541 
Q 2913 2691 2578 2766 
Q 2244 2841 1947 2841 
Q 1628 2841 1473 2761 
Q 1319 2681 1319 2516 
Q 1319 2381 1436 2309 
Q 1553 2238 1856 2203 
L 2053 2175 
Q 2913 2066 3209 1816 
Q 3506 1566 3506 1031 
Q 3506 472 3093 190 
Q 2681 -91 1863 -91 
Q 1516 -91 1145 -36 
Q 775 19 384 128 
L 384 978 
Q 719 816 1070 734 
Q 1422 653 1784 653 
Q 2113 653 2278 743 
Q 2444 834 2444 1013 
Q 2444 1163 2330 1236 
Q 2216 1309 1875 1350 
L 1678 1375 
Q 931 1469 631 1722 
Q 331 1975 331 2491 
Q 331 3047 712 3315 
Q 1094 3584 1881 3584 
Q 2191 3584 2531 3537 
Q 2872 3491 3272 3391 
z
" transform="scale(0.015625)"/>
      <path id="DejaVuSans-Bold-69" d="M 538 3500 
L 1656 3500 
L 1656 0 
L 538 0 
L 538 3500 
z
M 538 4863 
L 1656 4863 
L 1656 3950 
L 538 3950 
L 538 4863 
z
" transform="scale(0.015625)"/>
      <path id="DejaVuSans-Bold-70" d="M 1656 506 
L 1656 -1331 
L 538 -1331 
L 538 3500 
L 1656 3500 
L 1656 2988 
Q 1888 3294 2169 3439 
Q 2450 3584 2816 3584 
Q 3463 3584 3878 3070 
Q 4294 2556 4294 1747 
Q 4294 938 3878 423 
Q 3463 -91 2816 -91 
Q 2450 -91 2169 54 
Q 1888 200 1656 506 
z
M 2400 2772 
Q 2041 2772 1848 2508 
Q 1656 2244 1656 1747 
Q 1656 1250 1848 986 
Q 2041 722 2400 722 
Q 2759 722 2948 984 
Q 3138 1247 3138 1747 
Q 3138 2247 2948 2509 
Q 2759 2772 2400 2772 
z
" transform="scale(0.015625)"/>
      <path id="DejaVuSans-Bold-6a" d="M 538 3500 
L 1656 3500 
L 1656 63 
Q 1656 -641 1318 -1011 
Q 981 -1381 341 -1381 
L -213 -1381 
L -213 -647 
L -19 -647 
Q 300 -647 419 -503 
Q 538 -359 538 63 
L 538 3500 
z
M 538 4863 
L 1656 4863 
L 1656 3950 
L 538 3950 
L 538 4863 
z
" transform="scale(0.015625)"/>
      <path id="DejaVuSans-Bold-63" d="M 3366 3391 
L 3366 2478 
Q 3138 2634 2908 2709 
Q 2678 2784 2431 2784 
Q 1963 2784 1702 2511 
Q 1441 2238 1441 1747 
Q 1441 1256 1702 982 
Q 1963 709 2431 709 
Q 2694 709 2930 787 
Q 3166 866 3366 1019 
L 3366 103 
Q 3103 6 2833 -42 
Q 2563 -91 2291 -91 
Q 1344 -91 809 395 
Q 275 881 275 1747 
Q 275 2613 809 3098 
Q 1344 3584 2291 3584 
Q 2566 3584 2833 3536 
Q 3100 3488 3366 3391 
z
" transform="scale(0.015625)"/>
      <path id="DejaVuSans-Bold-6e" d="M 4056 2131 
L 4056 0 
L 2931 0 
L 2931 347 
L 2931 1631 
Q 2931 2084 2911 2256 
Q 2891 2428 2841 2509 
Q 2775 2619 2662 2680 
Q 2550 2741 2406 2741 
Q 2056 2741 1856 2470 
Q 1656 2200 1656 1722 
L 1656 0 
L 538 0 
L 538 3500 
L 1656 3500 
L 1656 2988 
Q 1909 3294 2193 3439 
Q 2478 3584 2822 3584 
Q 3428 3584 3742 3212 
Q 4056 2841 4056 2131 
z
" transform="scale(0.015625)"/>
     </defs>
     <use xlink:href="#DejaVuSans-Bold-48"/>
     <use xlink:href="#DejaVuSans-Bold-65" transform="translate(83.691406 0)"/>
     <use xlink:href="#DejaVuSans-Bold-6c" transform="translate(151.513672 0)"/>
     <use xlink:href="#DejaVuSans-Bold-64" transform="translate(185.791016 0)"/>
     <use xlink:href="#DejaVuSans-Bold-2d" transform="translate(257.373047 0)"/>
     <use xlink:href="#DejaVuSans-Bold-6f" transform="translate(298.876953 0)"/>
     <use xlink:href="#DejaVuSans-Bold-75" transform="translate(367.578125 0)"/>
     <use xlink:href="#DejaVuSans-Bold-74" transform="translate(438.769531 0)"/>
     <use xlink:href="#DejaVuSans-Bold-20" transform="translate(486.572266 0)"/>
     <use xlink:href="#DejaVuSans-Bold-72" transform="translate(521.386719 0)"/>
     <use xlink:href="#DejaVuSans-Bold-65" transform="translate(570.703125 0)"/>
     <use xlink:href="#DejaVuSans-Bold-73" transform="translate(638.525391 0)"/>
     <use xlink:href="#DejaVuSans-Bold-69" transform="translate(698.046875 0)"/>
     <use xlink:href="#DejaVuSans-Bold-64" transform="translate(732.324219 0)"/>
     <use xlink:href="#DejaVuSans-Bold-75" transform="translate(803.90625 0)"/>
     <use xlink:href="#DejaVuSans-Bold-61" transform="translate(875.097656 0)"/>
     <use xlink:href="#DejaVuSans-Bold-6c" transform="translate(942.578125 0)"/>
     <use xlink:href="#DejaVuSans-Bold-20" transform="translate(976.855469 0)"/>
     <use xlink:href="#DejaVuSans-Bold-70" transform="translate(1011.669922 0)"/>
     <use xlink:href="#DejaVuSans-Bold-72" transform="translate(1083.251953 0)"/>
     <use xlink:href="#DejaVuSans-Bold-6f" transform="translate(1132.568359 0)"/>
     <use xlink:href="#DejaVuSans-Bold-6a" transform="translate(1201.269531 0)"/>
     <use xlink:href="#DejaVuSans-Bold-65" transform="translate(1235.546875 0)"/>
     <use xlink:href="#DejaVuSans-Bold-63" transform="translate(1303.369141 0)"/>
     <use xlink:href="#DejaVuSans-Bold-74" transform="translate(1362.646484 0)"/>
     <use xlink:href="#DejaVuSans-Bold-69" transform="translate(1410.449219 0)"/>
     <use xlink:href="#DejaVuSans-Bold-6f" transform="translate(1444.726562 0)"/>
     <use xlink:href="#DejaVuSans-Bold-6e" transform="translate(1513.427734 0)"/>
    </g>
   </g>
   <g id="text_3">
    <!-- (b) -->
    <g transform="translate(486.761667 31.4) scale(0.11 -0.11)">
     <defs>
      <path id="DejaVuSans-Bold-62" d="M 2400 722 
Q 2759 722 2948 984 
Q 3138 1247 3138 1747 
Q 3138 2247 2948 2509 
Q 2759 2772 2400 2772 
Q 2041 2772 1848 2508 
Q 1656 2244 1656 1747 
Q 1656 1250 1848 986 
Q 2041 722 2400 722 
z
M 1656 2988 
Q 1888 3294 2169 3439 
Q 2450 3584 2816 3584 
Q 3463 3584 3878 3070 
Q 4294 2556 4294 1747 
Q 4294 938 3878 423 
Q 3463 -91 2816 -91 
Q 2450 -91 2169 54 
Q 1888 200 1656 506 
L 1656 0 
L 538 0 
L 538 4863 
L 1656 4863 
L 1656 2988 
z
" transform="scale(0.015625)"/>
     </defs>
     <use xlink:href="#DejaVuSans-Bold-28"/>
     <use xlink:href="#DejaVuSans-Bold-62" transform="translate(45.703125 0)"/>
     <use xlink:href="#DejaVuSans-Bold-29" transform="translate(117.285156 0)"/>
    </g>
   </g>
   <g id="text_4">
    <!-- Gain normalisation and log target -->
    <g transform="translate(508.38125 31.4) scale(0.1 -0.1)">
     <defs>
      <path id="DejaVuSans-Bold-47" d="M 4781 347 
Q 4331 128 3847 18 
Q 3363 -91 2847 -91 
Q 1681 -91 1000 561 
Q 319 1213 319 2328 
Q 319 3456 1012 4103 
Q 1706 4750 2913 4750 
Q 3378 4750 3804 4662 
Q 4231 4575 4609 4403 
L 4609 3438 
Q 4219 3659 3833 3768 
Q 3447 3878 3059 3878 
Q 2341 3878 1952 3476 
Q 1563 3075 1563 2328 
Q 1563 1588 1938 1184 
Q 2313 781 3003 781 
Q 3191 781 3352 804 
Q 3513 828 3641 878 
L 3641 1784 
L 2906 1784 
L 2906 2591 
L 4781 2591 
L 4781 347 
z
" transform="scale(0.015625)"/>
      <path id="DejaVuSans-Bold-6d" d="M 3781 2919 
Q 3994 3244 4286 3414 
Q 4578 3584 4928 3584 
Q 5531 3584 5847 3212 
Q 6163 2841 6163 2131 
L 6163 0 
L 5038 0 
L 5038 1825 
Q 5041 1866 5042 1909 
Q 5044 1953 5044 2034 
Q 5044 2406 4934 2573 
Q 4825 2741 4581 2741 
Q 4263 2741 4089 2478 
Q 3916 2216 3909 1719 
L 3909 0 
L 2784 0 
L 2784 1825 
Q 2784 2406 2684 2573 
Q 2584 2741 2328 2741 
Q 2006 2741 1831 2477 
Q 1656 2213 1656 1722 
L 1656 0 
L 531 0 
L 531 3500 
L 1656 3500 
L 1656 2988 
Q 1863 3284 2130 3434 
Q 2397 3584 2719 3584 
Q 3081 3584 3359 3409 
Q 3638 3234 3781 2919 
z
" transform="scale(0.015625)"/>
      <path id="DejaVuSans-Bold-67" d="M 2919 594 
Q 2688 288 2409 144 
Q 2131 0 1766 0 
Q 1125 0 706 504 
Q 288 1009 288 1791 
Q 288 2575 706 3076 
Q 1125 3578 1766 3578 
Q 2131 3578 2409 3434 
Q 2688 3291 2919 2981 
L 2919 3500 
L 4044 3500 
L 4044 353 
Q 4044 -491 3511 -936 
Q 2978 -1381 1966 -1381 
Q 1638 -1381 1331 -1331 
Q 1025 -1281 716 -1178 
L 716 -306 
Q 1009 -475 1290 -558 
Q 1572 -641 1856 -641 
Q 2406 -641 2662 -400 
Q 2919 -159 2919 353 
L 2919 594 
z
M 2181 2772 
Q 1834 2772 1640 2515 
Q 1447 2259 1447 1791 
Q 1447 1309 1634 1061 
Q 1822 813 2181 813 
Q 2531 813 2725 1069 
Q 2919 1325 2919 1791 
Q 2919 2259 2725 2515 
Q 2531 2772 2181 2772 
z
" transform="scale(0.015625)"/>
     </defs>
     <use xlink:href="#DejaVuSans-Bold-47"/>
     <use xlink:href="#DejaVuSans-Bold-61" transform="translate(82.080078 0)"/>
     <use xlink:href="#DejaVuSans-Bold-69" transform="translate(149.560547 0)"/>
     <use xlink:href="#DejaVuSans-Bold-6e" transform="translate(183.837891 0)"/>
     <use xlink:href="#DejaVuSans-Bold-20" transform="translate(255.029297 0)"/>
     <use xlink:href="#DejaVuSans-Bold-6e" transform="translate(289.84375 0)"/>
     <use xlink:href="#DejaVuSans-Bold-6f" transform="translate(361.035156 0)"/>
     <use xlink:href="#DejaVuSans-Bold-72" transform="translate(429.736328 0)"/>
     <use xlink:href="#DejaVuSans-Bold-6d" transform="translate(479.052734 0)"/>
     <use xlink:href="#DejaVuSans-Bold-61" transform="translate(583.251953 0)"/>
     <use xlink:href="#DejaVuSans-Bold-6c" transform="translate(650.732422 0)"/>
     <use xlink:href="#DejaVuSans-Bold-69" transform="translate(685.009766 0)"/>
     <use xlink:href="#DejaVuSans-Bold-73" transform="translate(719.287109 0)"/>
     <use xlink:href="#DejaVuSans-Bold-61" transform="translate(778.808594 0)"/>
     <use xlink:href="#DejaVuSans-Bold-74" transform="translate(846.289062 0)"/>
     <use xlink:href="#DejaVuSans-Bold-69" transform="translate(894.091797 0)"/>
     <use xlink:href="#DejaVuSans-Bold-6f" transform="translate(928.369141 0)"/>
     <use xlink:href="#DejaVuSans-Bold-6e" transform="translate(997.070312 0)"/>
     <use xlink:href="#DejaVuSans-Bold-20" transform="translate(1068.261719 0)"/>
     <use xlink:href="#DejaVuSans-Bold-61" transform="translate(1103.076172 0)"/>
     <use xlink:href="#DejaVuSans-Bold-6e" transform="translate(1170.556641 0)"/>
     <use xlink:href="#DejaVuSans-Bold-64" transform="translate(1241.748047 0)"/>
     <use xlink:href="#DejaVuSans-Bold-20" transform="translate(1313.330078 0)"/>
     <use xlink:href="#DejaVuSans-Bold-6c" transform="translate(1348.144531 0)"/>
     <use xlink:href="#DejaVuSans-Bold-6f" transform="translate(1382.421875 0)"/>
     <use xlink:href="#DejaVuSans-Bold-67" transform="translate(1451.123047 0)"/>
     <use xlink:href="#DejaVuSans-Bold-20" transform="translate(1522.705078 0)"/>
     <use xlink:href="#DejaVuSans-Bold-74" transform="translate(1557.519531 0)"/>
     <use xlink:href="#DejaVuSans-Bold-61" transform="translate(1605.322266 0)"/>
     <use xlink:href="#DejaVuSans-Bold-72" transform="translate(1672.802734 0)"/>
     <use xlink:href="#DejaVuSans-Bold-67" transform="translate(1722.119141 0)"/>
     <use xlink:href="#DejaVuSans-Bold-65" transform="translate(1793.701172 0)"/>
     <use xlink:href="#DejaVuSans-Bold-74" transform="translate(1861.523438 0)"/>
    </g>
   </g>
   <g id="text_5">
    <!-- SSDU reconstruction -->
    <g transform="translate(38.624438 88.159728) scale(0.082 -0.082)">
     <defs>
      <path id="DejaVuSans-53" d="M 3425 4513 
L 3425 3897 
Q 3066 4069 2747 4153 
Q 2428 4238 2131 4238 
Q 1616 4238 1336 4038 
Q 1056 3838 1056 3469 
Q 1056 3159 1242 3001 
Q 1428 2844 1947 2747 
L 2328 2669 
Q 3034 2534 3370 2195 
Q 3706 1856 3706 1288 
Q 3706 609 3251 259 
Q 2797 -91 1919 -91 
Q 1588 -91 1214 -16 
Q 841 59 441 206 
L 441 856 
Q 825 641 1194 531 
Q 1563 422 1919 422 
Q 2459 422 2753 634 
Q 3047 847 3047 1241 
Q 3047 1584 2836 1778 
Q 2625 1972 2144 2069 
L 1759 2144 
Q 1053 2284 737 2584 
Q 422 2884 422 3419 
Q 422 4038 858 4394 
Q 1294 4750 2059 4750 
Q 2388 4750 2728 4690 
Q 3069 4631 3425 4513 
z
" transform="scale(0.015625)"/>
      <path id="DejaVuSans-44" d="M 1259 4147 
L 1259 519 
L 2022 519 
Q 2988 519 3436 956 
Q 3884 1394 3884 2338 
Q 3884 3275 3436 3711 
Q 2988 4147 2022 4147 
L 1259 4147 
z
M 628 4666 
L 1925 4666 
Q 3281 4666 3915 4102 
Q 4550 3538 4550 2338 
Q 4550 1131 3912 565 
Q 3275 0 1925 0 
L 628 0 
L 628 4666 
z
" transform="scale(0.015625)"/>
      <path id="DejaVuSans-55" d="M 556 4666 
L 1191 4666 
L 1191 1831 
Q 1191 1081 1462 751 
Q 1734 422 2344 422 
Q 2950 422 3222 751 
Q 3494 1081 3494 1831 
L 3494 4666 
L 4128 4666 
L 4128 1753 
Q 4128 841 3676 375 
Q 3225 -91 2344 -91 
Q 1459 -91 1007 375 
Q 556 841 556 1753 
L 556 4666 
z
" transform="scale(0.015625)"/>
      <path id="DejaVuSans-20" transform="scale(0.015625)"/>
      <path id="DejaVuSans-72" d="M 2631 2963 
Q 2534 3019 2420 3045 
Q 2306 3072 2169 3072 
Q 1681 3072 1420 2755 
Q 1159 2438 1159 1844 
L 1159 0 
L 581 0 
L 581 3500 
L 1159 3500 
L 1159 2956 
Q 1341 3275 1631 3429 
Q 1922 3584 2338 3584 
Q 2397 3584 2469 3576 
Q 2541 3569 2628 3553 
L 2631 2963 
z
" transform="scale(0.015625)"/>
      <path id="DejaVuSans-65" d="M 3597 1894 
L 3597 1613 
L 953 1613 
Q 991 1019 1311 708 
Q 1631 397 2203 397 
Q 2534 397 2845 478 
Q 3156 559 3463 722 
L 3463 178 
Q 3153 47 2828 -22 
Q 2503 -91 2169 -91 
Q 1331 -91 842 396 
Q 353 884 353 1716 
Q 353 2575 817 3079 
Q 1281 3584 2069 3584 
Q 2775 3584 3186 3129 
Q 3597 2675 3597 1894 
z
M 3022 2063 
Q 3016 2534 2758 2815 
Q 2500 3097 2075 3097 
Q 1594 3097 1305 2825 
Q 1016 2553 972 2059 
L 3022 2063 
z
" transform="scale(0.015625)"/>
      <path id="DejaVuSans-63" d="M 3122 3366 
L 3122 2828 
Q 2878 2963 2633 3030 
Q 2388 3097 2138 3097 
Q 1578 3097 1268 2742 
Q 959 2388 959 1747 
Q 959 1106 1268 751 
Q 1578 397 2138 397 
Q 2388 397 2633 464 
Q 2878 531 3122 666 
L 3122 134 
Q 2881 22 2623 -34 
Q 2366 -91 2075 -91 
Q 1284 -91 818 406 
Q 353 903 353 1747 
Q 353 2603 823 3093 
Q 1294 3584 2113 3584 
Q 2378 3584 2631 3529 
Q 2884 3475 3122 3366 
z
" transform="scale(0.015625)"/>
      <path id="DejaVuSans-6f" d="M 1959 3097 
Q 1497 3097 1228 2736 
Q 959 2375 959 1747 
Q 959 1119 1226 758 
Q 1494 397 1959 397 
Q 2419 397 2687 759 
Q 2956 1122 2956 1747 
Q 2956 2369 2687 2733 
Q 2419 3097 1959 3097 
z
M 1959 3584 
Q 2709 3584 3137 3096 
Q 3566 2609 3566 1747 
Q 3566 888 3137 398 
Q 2709 -91 1959 -91 
Q 1206 -91 779 398 
Q 353 888 353 1747 
Q 353 2609 779 3096 
Q 1206 3584 1959 3584 
z
" transform="scale(0.015625)"/>
      <path id="DejaVuSans-6e" d="M 3513 2113 
L 3513 0 
L 2938 0 
L 2938 2094 
Q 2938 2591 2744 2837 
Q 2550 3084 2163 3084 
Q 1697 3084 1428 2787 
Q 1159 2491 1159 1978 
L 1159 0 
L 581 0 
L 581 3500 
L 1159 3500 
L 1159 2956 
Q 1366 3272 1645 3428 
Q 1925 3584 2291 3584 
Q 2894 3584 3203 3211 
Q 3513 2838 3513 2113 
z
" transform="scale(0.015625)"/>
      <path id="DejaVuSans-73" d="M 2834 3397 
L 2834 2853 
Q 2591 2978 2328 3040 
Q 2066 3103 1784 3103 
Q 1356 3103 1142 2972 
Q 928 2841 928 2578 
Q 928 2378 1081 2264 
Q 1234 2150 1697 2047 
L 1894 2003 
Q 2506 1872 2764 1633 
Q 3022 1394 3022 966 
Q 3022 478 2636 193 
Q 2250 -91 1575 -91 
Q 1294 -91 989 -36 
Q 684 19 347 128 
L 347 722 
Q 666 556 975 473 
Q 1284 391 1588 391 
Q 1994 391 2212 530 
Q 2431 669 2431 922 
Q 2431 1156 2273 1281 
Q 2116 1406 1581 1522 
L 1381 1569 
Q 847 1681 609 1914 
Q 372 2147 372 2553 
Q 372 3047 722 3315 
Q 1072 3584 1716 3584 
Q 2034 3584 2315 3537 
Q 2597 3491 2834 3397 
z
" transform="scale(0.015625)"/>
      <path id="DejaVuSans-74" d="M 1172 4494 
L 1172 3500 
L 2356 3500 
L 2356 3053 
L 1172 3053 
L 1172 1153 
Q 1172 725 1289 603 
Q 1406 481 1766 481 
L 2356 481 
L 2356 0 
L 1766 0 
Q 1100 0 847 248 
Q 594 497 594 1153 
L 594 3053 
L 172 3053 
L 172 3500 
L 594 3500 
L 594 4494 
L 1172 4494 
z
" transform="scale(0.015625)"/>
      <path id="DejaVuSans-75" d="M 544 1381 
L 544 3500 
L 1119 3500 
L 1119 1403 
Q 1119 906 1312 657 
Q 1506 409 1894 409 
Q 2359 409 2629 706 
Q 2900 1003 2900 1516 
L 2900 3500 
L 3475 3500 
L 3475 0 
L 2900 0 
L 2900 538 
Q 2691 219 2414 64 
Q 2138 -91 1772 -91 
Q 1169 -91 856 284 
Q 544 659 544 1381 
z
M 1991 3584 
L 1991 3584 
z
" transform="scale(0.015625)"/>
      <path id="DejaVuSans-69" d="M 603 3500 
L 1178 3500 
L 1178 0 
L 603 0 
L 603 3500 
z
M 603 4863 
L 1178 4863 
L 1178 4134 
L 603 4134 
L 603 4863 
z
" transform="scale(0.015625)"/>
     </defs>
     <use xlink:href="#DejaVuSans-53"/>
     <use xlink:href="#DejaVuSans-53" transform="translate(63.476562 0)"/>
     <use xlink:href="#DejaVuSans-44" transform="translate(126.953125 0)"/>
     <use xlink:href="#DejaVuSans-55" transform="translate(203.955078 0)"/>
     <use xlink:href="#DejaVuSans-20" transform="translate(277.148438 0)"/>
     <use xlink:href="#DejaVuSans-72" transform="translate(308.935547 0)"/>
     <use xlink:href="#DejaVuSans-65" transform="translate(347.798828 0)"/>
     <use xlink:href="#DejaVuSans-63" transform="translate(409.322266 0)"/>
     <use xlink:href="#DejaVuSans-6f" transform="translate(464.302734 0)"/>
     <use xlink:href="#DejaVuSans-6e" transform="translate(525.484375 0)"/>
     <use xlink:href="#DejaVuSans-73" transform="translate(588.863281 0)"/>
     <use xlink:href="#DejaVuSans-74" transform="translate(640.962891 0)"/>
     <use xlink:href="#DejaVuSans-72" transform="translate(680.171875 0)"/>
     <use xlink:href="#DejaVuSans-75" transform="translate(721.285156 0)"/>
     <use xlink:href="#DejaVuSans-63" transform="translate(784.664062 0)"/>
     <use xlink:href="#DejaVuSans-74" transform="translate(839.644531 0)"/>
     <use xlink:href="#DejaVuSans-69" transform="translate(878.853516 0)"/>
     <use xlink:href="#DejaVuSans-6f" transform="translate(906.636719 0)"/>
     <use xlink:href="#DejaVuSans-6e" transform="translate(967.818359 0)"/>
    </g>
    <!-- $\hat{x}_v$ -->
    <g transform="translate(76.598125 97.965647) scale(0.082 -0.082)">
     <defs>
      <path id="DejaVuSans-302" d="M -1831 5119 
L -1369 5119 
L -603 3944 
L -1038 3944 
L -1600 4709 
L -2163 3944 
L -2597 3944 
L -1831 5119 
z
M -1600 3584 
L -1600 3584 
z
" transform="scale(0.015625)"/>
      <path id="DejaVuSans-Oblique-78" d="M 3841 3500 
L 2234 1784 
L 3219 0 
L 2559 0 
L 1819 1388 
L 531 0 
L -166 0 
L 1556 1844 
L 641 3500 
L 1300 3500 
L 1972 2234 
L 3144 3500 
L 3841 3500 
z
" transform="scale(0.015625)"/>
      <path id="DejaVuSans-Oblique-76" d="M 459 3500 
L 1069 3500 
L 1581 525 
L 3256 3500 
L 3866 3500 
L 1875 0 
L 1100 0 
L 459 3500 
z
" transform="scale(0.015625)"/>
     </defs>
     <use xlink:href="#DejaVuSans-302" transform="translate(62.373047 12.015625)"/>
     <use xlink:href="#DejaVuSans-Oblique-78" transform="translate(0 0.828125)"/>
     <use xlink:href="#DejaVuSans-Oblique-76" transform="translate(60.136719 -15.578125) scale(0.7)"/>
    </g>
   </g>
   <g id="text_6">
    <!-- Held-out projection -->
    <g transform="translate(163.363083 88.159728) scale(0.082 -0.082)">
     <defs>
      <path id="DejaVuSans-48" d="M 628 4666 
L 1259 4666 
L 1259 2753 
L 3553 2753 
L 3553 4666 
L 4184 4666 
L 4184 0 
L 3553 0 
L 3553 2222 
L 1259 2222 
L 1259 0 
L 628 0 
L 628 4666 
z
" transform="scale(0.015625)"/>
      <path id="DejaVuSans-6c" d="M 603 4863 
L 1178 4863 
L 1178 0 
L 603 0 
L 603 4863 
z
" transform="scale(0.015625)"/>
      <path id="DejaVuSans-64" d="M 2906 2969 
L 2906 4863 
L 3481 4863 
L 3481 0 
L 2906 0 
L 2906 525 
Q 2725 213 2448 61 
Q 2172 -91 1784 -91 
Q 1150 -91 751 415 
Q 353 922 353 1747 
Q 353 2572 751 3078 
Q 1150 3584 1784 3584 
Q 2172 3584 2448 3432 
Q 2725 3281 2906 2969 
z
M 947 1747 
Q 947 1113 1208 752 
Q 1469 391 1925 391 
Q 2381 391 2643 752 
Q 2906 1113 2906 1747 
Q 2906 2381 2643 2742 
Q 2381 3103 1925 3103 
Q 1469 3103 1208 2742 
Q 947 2381 947 1747 
z
" transform="scale(0.015625)"/>
      <path id="DejaVuSans-2d" d="M 313 2009 
L 1997 2009 
L 1997 1497 
L 313 1497 
L 313 2009 
z
" transform="scale(0.015625)"/>
      <path id="DejaVuSans-70" d="M 1159 525 
L 1159 -1331 
L 581 -1331 
L 581 3500 
L 1159 3500 
L 1159 2969 
Q 1341 3281 1617 3432 
Q 1894 3584 2278 3584 
Q 2916 3584 3314 3078 
Q 3713 2572 3713 1747 
Q 3713 922 3314 415 
Q 2916 -91 2278 -91 
Q 1894 -91 1617 61 
Q 1341 213 1159 525 
z
M 3116 1747 
Q 3116 2381 2855 2742 
Q 2594 3103 2138 3103 
Q 1681 3103 1420 2742 
Q 1159 2381 1159 1747 
Q 1159 1113 1420 752 
Q 1681 391 2138 391 
Q 2594 391 2855 752 
Q 3116 1113 3116 1747 
z
" transform="scale(0.015625)"/>
      <path id="DejaVuSans-6a" d="M 603 3500 
L 1178 3500 
L 1178 -63 
Q 1178 -731 923 -1031 
Q 669 -1331 103 -1331 
L -116 -1331 
L -116 -844 
L 38 -844 
Q 366 -844 484 -692 
Q 603 -541 603 -63 
L 603 3500 
z
M 603 4863 
L 1178 4863 
L 1178 4134 
L 603 4134 
L 603 4863 
z
" transform="scale(0.015625)"/>
     </defs>
     <use xlink:href="#DejaVuSans-48"/>
     <use xlink:href="#DejaVuSans-65" transform="translate(75.195312 0)"/>
     <use xlink:href="#DejaVuSans-6c" transform="translate(136.71875 0)"/>
     <use xlink:href="#DejaVuSans-64" transform="translate(164.501953 0)"/>
     <use xlink:href="#DejaVuSans-2d" transform="translate(227.978516 0)"/>
     <use xlink:href="#DejaVuSans-6f" transform="translate(265.9375 0)"/>
     <use xlink:href="#DejaVuSans-75" transform="translate(327.119141 0)"/>
     <use xlink:href="#DejaVuSans-74" transform="translate(390.498047 0)"/>
     <use xlink:href="#DejaVuSans-20" transform="translate(429.707031 0)"/>
     <use xlink:href="#DejaVuSans-70" transform="translate(461.494141 0)"/>
     <use xlink:href="#DejaVuSans-72" transform="translate(524.970703 0)"/>
     <use xlink:href="#DejaVuSans-6f" transform="translate(563.833984 0)"/>
     <use xlink:href="#DejaVuSans-6a" transform="translate(625.015625 0)"/>
     <use xlink:href="#DejaVuSans-65" transform="translate(652.798828 0)"/>
     <use xlink:href="#DejaVuSans-63" transform="translate(714.322266 0)"/>
     <use xlink:href="#DejaVuSans-74" transform="translate(769.302734 0)"/>
     <use xlink:href="#DejaVuSans-69" transform="translate(808.511719 0)"/>
     <use xlink:href="#DejaVuSans-6f" transform="translate(836.294922 0)"/>
     <use xlink:href="#DejaVuSans-6e" transform="translate(897.476562 0)"/>
    </g>
    <!-- $E_{\Lambda}\hat{x}_v$ -->
    <g transform="translate(193.779958 97.965647) scale(0.082 -0.082)">
     <defs>
      <path id="DejaVuSans-Oblique-45" d="M 1081 4666 
L 4031 4666 
L 3928 4134 
L 1606 4134 
L 1338 2753 
L 3566 2753 
L 3463 2222 
L 1234 2222 
L 909 531 
L 3284 531 
L 3181 0 
L 172 0 
L 1081 4666 
z
" transform="scale(0.015625)"/>
      <path id="DejaVuSans-39b" d="M 716 0 
L 50 0 
L 1831 4666 
L 2547 4666 
L 4325 0 
L 3669 0 
L 2188 4044 
L 716 0 
z
" transform="scale(0.015625)"/>
     </defs>
     <use xlink:href="#DejaVuSans-Oblique-45" transform="translate(0 0.828125)"/>
     <use xlink:href="#DejaVuSans-39b" transform="translate(63.183594 -15.578125) scale(0.7)"/>
     <use xlink:href="#DejaVuSans-302" transform="translate(176.176758 12.015625)"/>
     <use xlink:href="#DejaVuSans-Oblique-78" transform="translate(113.803711 0.828125)"/>
     <use xlink:href="#DejaVuSans-Oblique-76" transform="translate(173.94043 -15.578125) scale(0.7)"/>
    </g>
   </g>
   <g id="text_7">
    <!-- Held-out residual -->
    <g transform="translate(312.909583 88.9259) scale(0.08 -0.08)">
     <defs>
      <path id="DejaVuSans-61" d="M 2194 1759 
Q 1497 1759 1228 1600 
Q 959 1441 959 1056 
Q 959 750 1161 570 
Q 1363 391 1709 391 
Q 2188 391 2477 730 
Q 2766 1069 2766 1631 
L 2766 1759 
L 2194 1759 
z
M 3341 1997 
L 3341 0 
L 2766 0 
L 2766 531 
Q 2569 213 2275 61 
Q 1981 -91 1556 -91 
Q 1019 -91 701 211 
Q 384 513 384 1019 
Q 384 1609 779 1909 
Q 1175 2209 1959 2209 
L 2766 2209 
L 2766 2266 
Q 2766 2663 2505 2880 
Q 2244 3097 1772 3097 
Q 1472 3097 1187 3025 
Q 903 2953 641 2809 
L 641 3341 
Q 956 3463 1253 3523 
Q 1550 3584 1831 3584 
Q 2591 3584 2966 3190 
Q 3341 2797 3341 1997 
z
" transform="scale(0.015625)"/>
     </defs>
     <use xlink:href="#DejaVuSans-48"/>
     <use xlink:href="#DejaVuSans-65" transform="translate(75.195312 0)"/>
     <use xlink:href="#DejaVuSans-6c" transform="translate(136.71875 0)"/>
     <use xlink:href="#DejaVuSans-64" transform="translate(164.501953 0)"/>
     <use xlink:href="#DejaVuSans-2d" transform="translate(227.978516 0)"/>
     <use xlink:href="#DejaVuSans-6f" transform="translate(265.9375 0)"/>
     <use xlink:href="#DejaVuSans-75" transform="translate(327.119141 0)"/>
     <use xlink:href="#DejaVuSans-74" transform="translate(390.498047 0)"/>
     <use xlink:href="#DejaVuSans-20" transform="translate(429.707031 0)"/>
     <use xlink:href="#DejaVuSans-72" transform="translate(461.494141 0)"/>
     <use xlink:href="#DejaVuSans-65" transform="translate(500.357422 0)"/>
     <use xlink:href="#DejaVuSans-73" transform="translate(561.880859 0)"/>
     <use xlink:href="#DejaVuSans-69" transform="translate(613.980469 0)"/>
     <use xlink:href="#DejaVuSans-64" transform="translate(641.763672 0)"/>
     <use xlink:href="#DejaVuSans-75" transform="translate(705.240234 0)"/>
     <use xlink:href="#DejaVuSans-61" transform="translate(768.619141 0)"/>
     <use xlink:href="#DejaVuSans-6c" transform="translate(829.898438 0)"/>
    </g>
    <!-- $r_{\Lambda}=y_{\Lambda}-E_{\Lambda}\hat{x}_v$ -->
    <g transform="translate(320.577083 98.83285) scale(0.08 -0.08)">
     <defs>
      <path id="DejaVuSans-Oblique-72" d="M 2853 2969 
Q 2766 3016 2653 3041 
Q 2541 3066 2413 3066 
Q 1953 3066 1609 2717 
Q 1266 2369 1153 1784 
L 800 0 
L 225 0 
L 909 3500 
L 1484 3500 
L 1375 2956 
Q 1603 3259 1920 3421 
Q 2238 3584 2597 3584 
Q 2691 3584 2781 3573 
Q 2872 3563 2963 3538 
L 2853 2969 
z
" transform="scale(0.015625)"/>
      <path id="DejaVuSans-3d" d="M 678 2906 
L 4684 2906 
L 4684 2381 
L 678 2381 
L 678 2906 
z
M 678 1631 
L 4684 1631 
L 4684 1100 
L 678 1100 
L 678 1631 
z
" transform="scale(0.015625)"/>
      <path id="DejaVuSans-Oblique-79" d="M 1588 -325 
Q 1188 -997 936 -1164 
Q 684 -1331 294 -1331 
L -159 -1331 
L -63 -850 
L 269 -850 
Q 509 -850 678 -719 
Q 847 -588 1056 -206 
L 1234 128 
L 459 3500 
L 1069 3500 
L 1650 819 
L 3256 3500 
L 3859 3500 
L 1588 -325 
z
" transform="scale(0.015625)"/>
      <path id="DejaVuSans-2212" d="M 678 2272 
L 4684 2272 
L 4684 1741 
L 678 1741 
L 678 2272 
z
" transform="scale(0.015625)"/>
     </defs>
     <use xlink:href="#DejaVuSans-Oblique-72" transform="translate(0 0.828125)"/>
     <use xlink:href="#DejaVuSans-39b" transform="translate(41.113281 -15.578125) scale(0.7)"/>
     <use xlink:href="#DejaVuSans-3d" transform="translate(111.21582 0.828125)"/>
     <use xlink:href="#DejaVuSans-Oblique-79" transform="translate(214.487305 0.828125)"/>
     <use xlink:href="#DejaVuSans-39b" transform="translate(273.666992 -15.578125) scale(0.7)"/>
     <use xlink:href="#DejaVuSans-2212" transform="translate(343.769531 0.828125)"/>
     <use xlink:href="#DejaVuSans-Oblique-45" transform="translate(447.041016 0.828125)"/>
     <use xlink:href="#DejaVuSans-39b" transform="translate(510.224609 -15.578125) scale(0.7)"/>
     <use xlink:href="#DejaVuSans-302" transform="translate(623.217773 12.015625)"/>
     <use xlink:href="#DejaVuSans-Oblique-78" transform="translate(560.844727 0.828125)"/>
     <use xlink:href="#DejaVuSans-Oblique-76" transform="translate(620.981445 -15.578125) scale(0.7)"/>
    </g>
   </g>
   <g id="text_8">
    <!-- DCF adjoint -->
    <g transform="translate(80.296667 164.4155) scale(0.08 -0.08)">
     <defs>
      <path id="DejaVuSans-43" d="M 4122 4306 
L 4122 3641 
Q 3803 3938 3442 4084 
Q 3081 4231 2675 4231 
Q 1875 4231 1450 3742 
Q 1025 3253 1025 2328 
Q 1025 1406 1450 917 
Q 1875 428 2675 428 
Q 3081 428 3442 575 
Q 3803 722 4122 1019 
L 4122 359 
Q 3791 134 3420 21 
Q 3050 -91 2638 -91 
Q 1578 -91 968 557 
Q 359 1206 359 2328 
Q 359 3453 968 4101 
Q 1578 4750 2638 4750 
Q 3056 4750 3426 4639 
Q 3797 4528 4122 4306 
z
" transform="scale(0.015625)"/>
      <path id="DejaVuSans-46" d="M 628 4666 
L 3309 4666 
L 3309 4134 
L 1259 4134 
L 1259 2759 
L 3109 2759 
L 3109 2228 
L 1259 2228 
L 1259 0 
L 628 0 
L 628 4666 
z
" transform="scale(0.015625)"/>
     </defs>
     <use xlink:href="#DejaVuSans-44"/>
     <use xlink:href="#DejaVuSans-43" transform="translate(77.001953 0)"/>
     <use xlink:href="#DejaVuSans-46" transform="translate(146.826172 0)"/>
     <use xlink:href="#DejaVuSans-20" transform="translate(204.345703 0)"/>
     <use xlink:href="#DejaVuSans-61" transform="translate(236.132812 0)"/>
     <use xlink:href="#DejaVuSans-64" transform="translate(297.412109 0)"/>
     <use xlink:href="#DejaVuSans-6a" transform="translate(360.888672 0)"/>
     <use xlink:href="#DejaVuSans-6f" transform="translate(388.671875 0)"/>
     <use xlink:href="#DejaVuSans-69" transform="translate(449.853516 0)"/>
     <use xlink:href="#DejaVuSans-6e" transform="translate(477.636719 0)"/>
     <use xlink:href="#DejaVuSans-74" transform="translate(541.015625 0)"/>
    </g>
    <!-- $E_{\Lambda}^{H}W_{\Lambda}r_{\Lambda}$ -->
    <g transform="translate(88.825417 174.14325) scale(0.08 -0.08)">
     <defs>
      <path id="DejaVuSans-Oblique-48" d="M 1081 4666 
L 1716 4666 
L 1344 2753 
L 3634 2753 
L 4006 4666 
L 4641 4666 
L 3731 0 
L 3097 0 
L 3531 2222 
L 1241 2222 
L 806 0 
L 172 0 
L 1081 4666 
z
" transform="scale(0.015625)"/>
      <path id="DejaVuSans-Oblique-57" d="M 616 4666 
L 1228 4666 
L 1453 697 
L 3213 4666 
L 3916 4666 
L 4147 697 
L 5888 4666 
L 6528 4666 
L 4453 0 
L 3659 0 
L 3444 3891 
L 1697 0 
L 903 0 
L 616 4666 
z
" transform="scale(0.015625)"/>
     </defs>
     <use xlink:href="#DejaVuSans-Oblique-45" transform="translate(0 0.684375)"/>
     <use xlink:href="#DejaVuSans-Oblique-48" transform="translate(70.200365 38.965625) scale(0.7)"/>
     <use xlink:href="#DejaVuSans-39b" transform="translate(63.183594 -26.659375) scale(0.7)"/>
     <use xlink:href="#DejaVuSans-Oblique-57" transform="translate(125.571458 0.684375)"/>
     <use xlink:href="#DejaVuSans-39b" transform="translate(224.448411 -15.721875) scale(0.7)"/>
     <use xlink:href="#DejaVuSans-Oblique-72" transform="translate(275.068529 0.684375)"/>
     <use xlink:href="#DejaVuSans-39b" transform="translate(316.18181 -15.721875) scale(0.7)"/>
    </g>
   </g>
   <g id="text_9">
    <!-- Squared energy -->
    <g transform="translate(212.01575 164.445432) scale(0.078 -0.078)">
     <defs>
      <path id="DejaVuSans-71" d="M 947 1747 
Q 947 1113 1208 752 
Q 1469 391 1925 391 
Q 2381 391 2643 752 
Q 2906 1113 2906 1747 
Q 2906 2381 2643 2742 
Q 2381 3103 1925 3103 
Q 1469 3103 1208 2742 
Q 947 2381 947 1747 
z
M 2906 525 
Q 2725 213 2448 61 
Q 2172 -91 1784 -91 
Q 1150 -91 751 415 
Q 353 922 353 1747 
Q 353 2572 751 3078 
Q 1150 3584 1784 3584 
Q 2172 3584 2448 3432 
Q 2725 3281 2906 2969 
L 2906 3500 
L 3481 3500 
L 3481 -1331 
L 2906 -1331 
L 2906 525 
z
" transform="scale(0.015625)"/>
      <path id="DejaVuSans-67" d="M 2906 1791 
Q 2906 2416 2648 2759 
Q 2391 3103 1925 3103 
Q 1463 3103 1205 2759 
Q 947 2416 947 1791 
Q 947 1169 1205 825 
Q 1463 481 1925 481 
Q 2391 481 2648 825 
Q 2906 1169 2906 1791 
z
M 3481 434 
Q 3481 -459 3084 -895 
Q 2688 -1331 1869 -1331 
Q 1566 -1331 1297 -1286 
Q 1028 -1241 775 -1147 
L 775 -588 
Q 1028 -725 1275 -790 
Q 1522 -856 1778 -856 
Q 2344 -856 2625 -561 
Q 2906 -266 2906 331 
L 2906 616 
Q 2728 306 2450 153 
Q 2172 0 1784 0 
Q 1141 0 747 490 
Q 353 981 353 1791 
Q 353 2603 747 3093 
Q 1141 3584 1784 3584 
Q 2172 3584 2450 3431 
Q 2728 3278 2906 2969 
L 2906 3500 
L 3481 3500 
L 3481 434 
z
" transform="scale(0.015625)"/>
      <path id="DejaVuSans-79" d="M 2059 -325 
Q 1816 -950 1584 -1140 
Q 1353 -1331 966 -1331 
L 506 -1331 
L 506 -850 
L 844 -850 
Q 1081 -850 1212 -737 
Q 1344 -625 1503 -206 
L 1606 56 
L 191 3500 
L 800 3500 
L 1894 763 
L 2988 3500 
L 3597 3500 
L 2059 -325 
z
" transform="scale(0.015625)"/>
     </defs>
     <use xlink:href="#DejaVuSans-53"/>
     <use xlink:href="#DejaVuSans-71" transform="translate(63.476562 0)"/>
     <use xlink:href="#DejaVuSans-75" transform="translate(126.953125 0)"/>
     <use xlink:href="#DejaVuSans-61" transform="translate(190.332031 0)"/>
     <use xlink:href="#DejaVuSans-72" transform="translate(251.611328 0)"/>
     <use xlink:href="#DejaVuSans-65" transform="translate(290.474609 0)"/>
     <use xlink:href="#DejaVuSans-64" transform="translate(351.998047 0)"/>
     <use xlink:href="#DejaVuSans-20" transform="translate(415.474609 0)"/>
     <use xlink:href="#DejaVuSans-65" transform="translate(447.261719 0)"/>
     <use xlink:href="#DejaVuSans-6e" transform="translate(508.785156 0)"/>
     <use xlink:href="#DejaVuSans-65" transform="translate(572.164062 0)"/>
     <use xlink:href="#DejaVuSans-72" transform="translate(633.6875 0)"/>
     <use xlink:href="#DejaVuSans-67" transform="translate(673.050781 0)"/>
     <use xlink:href="#DejaVuSans-79" transform="translate(736.527344 0)"/>
    </g>
    <!-- $e_{\Lambda}=\left|E_{\Lambda}^{H}W_{\Lambda}r_{\Lambda}\right|^{2}$ -->
    <g transform="translate(214.619 174.017349) scale(0.078 -0.078)">
     <defs>
      <path id="DejaVuSans-Oblique-65" d="M 3078 2063 
Q 3088 2113 3092 2166 
Q 3097 2219 3097 2272 
Q 3097 2653 2873 2875 
Q 2650 3097 2266 3097 
Q 1838 3097 1509 2826 
Q 1181 2556 1013 2059 
L 3078 2063 
z
M 3578 1613 
L 903 1613 
Q 884 1494 878 1425 
Q 872 1356 872 1306 
Q 872 872 1139 634 
Q 1406 397 1894 397 
Q 2269 397 2603 481 
Q 2938 566 3225 728 
L 3116 159 
Q 2806 34 2476 -28 
Q 2147 -91 1806 -91 
Q 1078 -91 686 257 
Q 294 606 294 1247 
Q 294 1794 489 2264 
Q 684 2734 1063 3103 
Q 1306 3334 1642 3459 
Q 1978 3584 2356 3584 
Q 2950 3584 3301 3228 
Q 3653 2872 3653 2272 
Q 3653 2128 3634 1964 
Q 3616 1800 3578 1613 
z
" transform="scale(0.015625)"/>
      <path id="DejaVuSans-7c" d="M 1344 4891 
L 1344 -1509 
L 813 -1509 
L 813 4891 
L 1344 4891 
z
" transform="scale(0.015625)"/>
      <path id="DejaVuSans-32" d="M 1228 531 
L 3431 531 
L 3431 0 
L 469 0 
L 469 531 
Q 828 903 1448 1529 
Q 2069 2156 2228 2338 
Q 2531 2678 2651 2914 
Q 2772 3150 2772 3378 
Q 2772 3750 2511 3984 
Q 2250 4219 1831 4219 
Q 1534 4219 1204 4116 
Q 875 4013 500 3803 
L 500 4441 
Q 881 4594 1212 4672 
Q 1544 4750 1819 4750 
Q 2544 4750 2975 4387 
Q 3406 4025 3406 3419 
Q 3406 3131 3298 2873 
Q 3191 2616 2906 2266 
Q 2828 2175 2409 1742 
Q 1991 1309 1228 531 
z
" transform="scale(0.015625)"/>
     </defs>
     <use xlink:href="#DejaVuSans-Oblique-65" transform="translate(0 0.765625)"/>
     <use xlink:href="#DejaVuSans-39b" transform="translate(61.523438 -15.640625) scale(0.7)"/>
     <use xlink:href="#DejaVuSans-3d" transform="translate(131.625977 0.765625)"/>
     <use xlink:href="#DejaVuSans-7c" transform="translate(234.897461 1.015625) scale(1.166594)"/>
     <use xlink:href="#DejaVuSans-Oblique-45" transform="translate(274.190063 0.765625)"/>
     <use xlink:href="#DejaVuSans-Oblique-48" transform="translate(344.390428 39.046875) scale(0.7)"/>
     <use xlink:href="#DejaVuSans-39b" transform="translate(337.373657 -26.578125) scale(0.7)"/>
     <use xlink:href="#DejaVuSans-Oblique-57" transform="translate(399.761522 0.765625)"/>
     <use xlink:href="#DejaVuSans-39b" transform="translate(498.638475 -15.640625) scale(0.7)"/>
     <use xlink:href="#DejaVuSans-Oblique-72" transform="translate(549.258592 0.765625)"/>
     <use xlink:href="#DejaVuSans-39b" transform="translate(590.371873 -15.640625) scale(0.7)"/>
     <use xlink:href="#DejaVuSans-7c" transform="translate(640.991991 1.015625) scale(1.166594)"/>
     <use xlink:href="#DejaVuSans-32" transform="translate(681.241624 39.046875) scale(0.7)"/>
    </g>
   </g>
   <g id="text_10">
    <!-- Local pool -->
    <g transform="translate(345.172375 165.179389) scale(0.086 -0.086)">
     <defs>
      <path id="DejaVuSans-4c" d="M 628 4666 
L 1259 4666 
L 1259 531 
L 3531 531 
L 3531 0 
L 628 0 
L 628 4666 
z
" transform="scale(0.015625)"/>
     </defs>
     <use xlink:href="#DejaVuSans-4c"/>
     <use xlink:href="#DejaVuSans-6f" transform="translate(53.962891 0)"/>
     <use xlink:href="#DejaVuSans-63" transform="translate(115.144531 0)"/>
     <use xlink:href="#DejaVuSans-61" transform="translate(170.125 0)"/>
     <use xlink:href="#DejaVuSans-6c" transform="translate(231.404297 0)"/>
     <use xlink:href="#DejaVuSans-20" transform="translate(259.1875 0)"/>
     <use xlink:href="#DejaVuSans-70" transform="translate(290.974609 0)"/>
     <use xlink:href="#DejaVuSans-6f" transform="translate(354.451172 0)"/>
     <use xlink:href="#DejaVuSans-6f" transform="translate(415.632812 0)"/>
     <use xlink:href="#DejaVuSans-6c" transform="translate(476.814453 0)"/>
    </g>
    <!-- $\bar{e}_{\Lambda}$ -->
    <g transform="translate(361.96925 174.286736) scale(0.086 -0.086)">
     <defs>
      <path id="DejaVuSans-304" d="M -2518 4769 
L -650 4769 
L -650 4306 
L -2518 4306 
L -2518 4769 
z
" transform="scale(0.015625)"/>
     </defs>
     <use xlink:href="#DejaVuSans-304" transform="translate(62.724609 1.484375)"/>
     <use xlink:href="#DejaVuSans-Oblique-65" transform="translate(0 0.265625)"/>
     <use xlink:href="#DejaVuSans-39b" transform="translate(62.480469 -16.140625) scale(0.7)"/>
    </g>
   </g>
   <g id="text_11">
    <g id="patch_28">
     <path d="M 287.931083 56.653 
L 406.503083 56.653 
Q 407.979083 56.653 407.979083 55.177 
L 407.979083 47.223 
Q 407.979083 45.747 406.503083 45.747 
L 287.931083 45.747 
Q 286.455083 45.747 286.455083 47.223 
L 286.455083 55.177 
Q 286.455083 56.653 287.931083 56.653 
z
" style="fill: #ffffff; stroke: #bbbbbb; stroke-width: 0.7; stroke-linejoin: miter"/>
    </g>
    <!-- held-out acquired k-space $y_{\Lambda}$ -->
    <g transform="translate(287.931083 53.455) scale(0.082 -0.082)">
     <defs>
      <path id="DejaVuSans-68" d="M 3513 2113 
L 3513 0 
L 2938 0 
L 2938 2094 
Q 2938 2591 2744 2837 
Q 2550 3084 2163 3084 
Q 1697 3084 1428 2787 
Q 1159 2491 1159 1978 
L 1159 0 
L 581 0 
L 581 4863 
L 1159 4863 
L 1159 2956 
Q 1366 3272 1645 3428 
Q 1925 3584 2291 3584 
Q 2894 3584 3203 3211 
Q 3513 2838 3513 2113 
z
" transform="scale(0.015625)"/>
      <path id="DejaVuSans-6b" d="M 581 4863 
L 1159 4863 
L 1159 1991 
L 2875 3500 
L 3609 3500 
L 1753 1863 
L 3688 0 
L 2938 0 
L 1159 1709 
L 1159 0 
L 581 0 
L 581 4863 
z
" transform="scale(0.015625)"/>
     </defs>
     <use xlink:href="#DejaVuSans-68" transform="translate(0 0.015625)"/>
     <use xlink:href="#DejaVuSans-65" transform="translate(63.378906 0.015625)"/>
     <use xlink:href="#DejaVuSans-6c" transform="translate(124.902344 0.015625)"/>
     <use xlink:href="#DejaVuSans-64" transform="translate(152.685547 0.015625)"/>
     <use xlink:href="#DejaVuSans-2d" transform="translate(216.162109 0.015625)"/>
     <use xlink:href="#DejaVuSans-6f" transform="translate(252.246094 0.015625)"/>
     <use xlink:href="#DejaVuSans-75" transform="translate(313.427734 0.015625)"/>
     <use xlink:href="#DejaVuSans-74" transform="translate(376.806641 0.015625)"/>
     <use xlink:href="#DejaVuSans-20" transform="translate(416.015625 0.015625)"/>
     <use xlink:href="#DejaVuSans-61" transform="translate(447.802734 0.015625)"/>
     <use xlink:href="#DejaVuSans-63" transform="translate(509.082031 0.015625)"/>
     <use xlink:href="#DejaVuSans-71" transform="translate(564.0625 0.015625)"/>
     <use xlink:href="#DejaVuSans-75" transform="translate(627.539062 0.015625)"/>
     <use xlink:href="#DejaVuSans-69" transform="translate(690.917969 0.015625)"/>
     <use xlink:href="#DejaVuSans-72" transform="translate(718.701172 0.015625)"/>
     <use xlink:href="#DejaVuSans-65" transform="translate(759.814453 0.015625)"/>
     <use xlink:href="#DejaVuSans-64" transform="translate(821.337891 0.015625)"/>
     <use xlink:href="#DejaVuSans-20" transform="translate(884.814453 0.015625)"/>
     <use xlink:href="#DejaVuSans-6b" transform="translate(916.601562 0.015625)"/>
     <use xlink:href="#DejaVuSans-2d" transform="translate(974.511719 0.015625)"/>
     <use xlink:href="#DejaVuSans-73" transform="translate(1010.595703 0.015625)"/>
     <use xlink:href="#DejaVuSans-70" transform="translate(1062.695312 0.015625)"/>
     <use xlink:href="#DejaVuSans-61" transform="translate(1126.171875 0.015625)"/>
     <use xlink:href="#DejaVuSans-63" transform="translate(1187.451172 0.015625)"/>
     <use xlink:href="#DejaVuSans-65" transform="translate(1242.431641 0.015625)"/>
     <use xlink:href="#DejaVuSans-20" transform="translate(1303.955078 0.015625)"/>
     <use xlink:href="#DejaVuSans-Oblique-79" transform="translate(1335.742188 0.015625)"/>
     <use xlink:href="#DejaVuSans-39b" transform="translate(1394.921875 -16.390625) scale(0.7)"/>
    </g>
   </g>
   <g id="text_12">
    <!-- Random probes -->
    <g transform="translate(486.555831 84.686761) scale(0.083 -0.083)">
     <defs>
      <path id="DejaVuSans-52" d="M 2841 2188 
Q 3044 2119 3236 1894 
Q 3428 1669 3622 1275 
L 4263 0 
L 3584 0 
L 2988 1197 
Q 2756 1666 2539 1819 
Q 2322 1972 1947 1972 
L 1259 1972 
L 1259 0 
L 628 0 
L 628 4666 
L 2053 4666 
Q 2853 4666 3247 4331 
Q 3641 3997 3641 3322 
Q 3641 2881 3436 2590 
Q 3231 2300 2841 2188 
z
M 1259 4147 
L 1259 2491 
L 2053 2491 
Q 2509 2491 2742 2702 
Q 2975 2913 2975 3322 
Q 2975 3731 2742 3939 
Q 2509 4147 2053 4147 
L 1259 4147 
z
" transform="scale(0.015625)"/>
      <path id="DejaVuSans-6d" d="M 3328 2828 
Q 3544 3216 3844 3400 
Q 4144 3584 4550 3584 
Q 5097 3584 5394 3201 
Q 5691 2819 5691 2113 
L 5691 0 
L 5113 0 
L 5113 2094 
Q 5113 2597 4934 2840 
Q 4756 3084 4391 3084 
Q 3944 3084 3684 2787 
Q 3425 2491 3425 1978 
L 3425 0 
L 2847 0 
L 2847 2094 
Q 2847 2600 2669 2842 
Q 2491 3084 2119 3084 
Q 1678 3084 1418 2786 
Q 1159 2488 1159 1978 
L 1159 0 
L 581 0 
L 581 3500 
L 1159 3500 
L 1159 2956 
Q 1356 3278 1631 3431 
Q 1906 3584 2284 3584 
Q 2666 3584 2933 3390 
Q 3200 3197 3328 2828 
z
" transform="scale(0.015625)"/>
      <path id="DejaVuSans-62" d="M 3116 1747 
Q 3116 2381 2855 2742 
Q 2594 3103 2138 3103 
Q 1681 3103 1420 2742 
Q 1159 2381 1159 1747 
Q 1159 1113 1420 752 
Q 1681 391 2138 391 
Q 2594 391 2855 752 
Q 3116 1113 3116 1747 
z
M 1159 2969 
Q 1341 3281 1617 3432 
Q 1894 3584 2278 3584 
Q 2916 3584 3314 3078 
Q 3713 2572 3713 1747 
Q 3713 922 3314 415 
Q 2916 -91 2278 -91 
Q 1894 -91 1617 61 
Q 1341 213 1159 525 
L 1159 0 
L 581 0 
L 581 4863 
L 1159 4863 
L 1159 2969 
z
" transform="scale(0.015625)"/>
     </defs>
     <use xlink:href="#DejaVuSans-52"/>
     <use xlink:href="#DejaVuSans-61" transform="translate(67.232422 0)"/>
     <use xlink:href="#DejaVuSans-6e" transform="translate(128.511719 0)"/>
     <use xlink:href="#DejaVuSans-64" transform="translate(191.890625 0)"/>
     <use xlink:href="#DejaVuSans-6f" transform="translate(255.367188 0)"/>
     <use xlink:href="#DejaVuSans-6d" transform="translate(316.548828 0)"/>
     <use xlink:href="#DejaVuSans-20" transform="translate(413.960938 0)"/>
     <use xlink:href="#DejaVuSans-70" transform="translate(445.748047 0)"/>
     <use xlink:href="#DejaVuSans-72" transform="translate(509.224609 0)"/>
     <use xlink:href="#DejaVuSans-6f" transform="translate(548.087891 0)"/>
     <use xlink:href="#DejaVuSans-62" transform="translate(609.269531 0)"/>
     <use xlink:href="#DejaVuSans-65" transform="translate(672.746094 0)"/>
     <use xlink:href="#DejaVuSans-73" transform="translate(734.269531 0)"/>
    </g>
    <!-- $\eta_{\Lambda}^{(k)},\ K=4$ -->
    <g transform="translate(498.358042 95.615942) scale(0.083 -0.083)">
     <defs>
      <path id="DejaVuSans-Oblique-3b7" d="M 3703 2113 
L 3034 -1331 
L 2459 -1331 
L 3125 2094 
Q 3222 2591 3075 2838 
Q 2931 3084 2544 3084 
Q 2078 3084 1750 2788 
Q 1425 2491 1325 1978 
L 941 0 
L 363 0 
L 1044 3500 
L 1622 3500 
L 1516 2956 
Q 1781 3272 2094 3428 
Q 2403 3584 2769 3584 
Q 3372 3584 3609 3213 
Q 3844 2838 3703 2113 
z
" transform="scale(0.015625)"/>
      <path id="DejaVuSans-28" d="M 1984 4856 
Q 1566 4138 1362 3434 
Q 1159 2731 1159 2009 
Q 1159 1288 1364 580 
Q 1569 -128 1984 -844 
L 1484 -844 
Q 1016 -109 783 600 
Q 550 1309 550 2009 
Q 550 2706 781 3412 
Q 1013 4119 1484 4856 
L 1984 4856 
z
" transform="scale(0.015625)"/>
      <path id="DejaVuSans-Oblique-6b" d="M 1172 4863 
L 1747 4863 
L 1197 2028 
L 3169 3500 
L 3916 3500 
L 1716 1825 
L 3322 0 
L 2625 0 
L 1131 1709 
L 800 0 
L 225 0 
L 1172 4863 
z
" transform="scale(0.015625)"/>
      <path id="DejaVuSans-29" d="M 513 4856 
L 1013 4856 
Q 1481 4119 1714 3412 
Q 1947 2706 1947 2009 
Q 1947 1309 1714 600 
Q 1481 -109 1013 -844 
L 513 -844 
Q 928 -128 1133 580 
Q 1338 1288 1338 2009 
Q 1338 2731 1133 3434 
Q 928 4138 513 4856 
z
" transform="scale(0.015625)"/>
      <path id="DejaVuSans-2c" d="M 750 794 
L 1409 794 
L 1409 256 
L 897 -744 
L 494 -744 
L 750 256 
L 750 794 
z
" transform="scale(0.015625)"/>
      <path id="DejaVuSans-Oblique-4b" d="M 1081 4666 
L 1716 4666 
L 1331 2700 
L 3781 4666 
L 4622 4666 
L 1850 2438 
L 3878 0 
L 3109 0 
L 1247 2272 
L 806 0 
L 172 0 
L 1081 4666 
z
" transform="scale(0.015625)"/>
      <path id="DejaVuSans-34" d="M 2419 4116 
L 825 1625 
L 2419 1625 
L 2419 4116 
z
M 2253 4666 
L 3047 4666 
L 3047 1625 
L 3713 1625 
L 3713 1100 
L 3047 1100 
L 3047 0 
L 2419 0 
L 2419 1100 
L 313 1100 
L 313 1709 
L 2253 4666 
z
" transform="scale(0.015625)"/>
     </defs>
     <use xlink:href="#DejaVuSans-Oblique-3b7" transform="translate(0 0.389063)"/>
     <use xlink:href="#DejaVuSans-28" transform="translate(68.028802 45.810938) scale(0.7)"/>
     <use xlink:href="#DejaVuSans-Oblique-6b" transform="translate(95.338372 45.810938) scale(0.7)"/>
     <use xlink:href="#DejaVuSans-29" transform="translate(135.875482 45.810938) scale(0.7)"/>
     <use xlink:href="#DejaVuSans-39b" transform="translate(63.378906 -26.954687) scale(0.7)"/>
     <use xlink:href="#DejaVuSans-2c" transform="translate(165.919427 0.389063)"/>
     <use xlink:href="#DejaVuSans-Oblique-4b" transform="translate(249.659337 0.389063)"/>
     <use xlink:href="#DejaVuSans-3d" transform="translate(334.717931 0.389063)"/>
     <use xlink:href="#DejaVuSans-34" transform="translate(437.989415 0.389063)"/>
    </g>
   </g>
   <g id="text_13">
    <!-- Probe gain -->
    <g transform="translate(612.304188 85.970655) scale(0.086 -0.086)">
     <defs>
      <path id="DejaVuSans-50" d="M 1259 4147 
L 1259 2394 
L 2053 2394 
Q 2494 2394 2734 2622 
Q 2975 2850 2975 3272 
Q 2975 3691 2734 3919 
Q 2494 4147 2053 4147 
L 1259 4147 
z
M 628 4666 
L 2053 4666 
Q 2838 4666 3239 4311 
Q 3641 3956 3641 3272 
Q 3641 2581 3239 2228 
Q 2838 1875 2053 1875 
L 1259 1875 
L 1259 0 
L 628 0 
L 628 4666 
z
" transform="scale(0.015625)"/>
     </defs>
     <use xlink:href="#DejaVuSans-50"/>
     <use xlink:href="#DejaVuSans-72" transform="translate(58.552734 0)"/>
     <use xlink:href="#DejaVuSans-6f" transform="translate(97.416016 0)"/>
     <use xlink:href="#DejaVuSans-62" transform="translate(158.597656 0)"/>
     <use xlink:href="#DejaVuSans-65" transform="translate(222.074219 0)"/>
     <use xlink:href="#DejaVuSans-20" transform="translate(283.597656 0)"/>
     <use xlink:href="#DejaVuSans-67" transform="translate(315.384766 0)"/>
     <use xlink:href="#DejaVuSans-61" transform="translate(378.861328 0)"/>
     <use xlink:href="#DejaVuSans-69" transform="translate(440.140625 0)"/>
     <use xlink:href="#DejaVuSans-6e" transform="translate(467.923828 0)"/>
    </g>
    <!-- $g_{\Lambda}$ -->
    <g transform="translate(630.205625 95.078001) scale(0.086 -0.086)">
     <defs>
      <path id="DejaVuSans-Oblique-67" d="M 3816 3500 
L 3219 434 
Q 3047 -456 2561 -893 
Q 2075 -1331 1253 -1331 
Q 950 -1331 690 -1286 
Q 431 -1241 206 -1147 
L 313 -588 
Q 525 -725 762 -790 
Q 1000 -856 1269 -856 
Q 1816 -856 2167 -557 
Q 2519 -259 2631 300 
L 2681 563 
Q 2441 288 2122 144 
Q 1803 0 1434 0 
Q 903 0 598 351 
Q 294 703 294 1319 
Q 294 1803 478 2267 
Q 663 2731 997 3091 
Q 1219 3328 1514 3456 
Q 1809 3584 2131 3584 
Q 2484 3584 2746 3420 
Q 3009 3256 3138 2956 
L 3238 3500 
L 3816 3500 
z
M 2950 2216 
Q 2950 2641 2750 2872 
Q 2550 3103 2181 3103 
Q 1953 3103 1747 3012 
Q 1541 2922 1394 2759 
Q 1156 2491 1023 2127 
Q 891 1763 891 1375 
Q 891 944 1092 712 
Q 1294 481 1672 481 
Q 2219 481 2584 976 
Q 2950 1472 2950 2216 
z
" transform="scale(0.015625)"/>
     </defs>
     <use xlink:href="#DejaVuSans-Oblique-67"/>
     <use xlink:href="#DejaVuSans-39b" transform="translate(63.476562 -16.40625) scale(0.7)"/>
    </g>
   </g>
   <g id="text_14">
    <!-- Gain envelope -->
    <g transform="translate(716.162937 85.969902) scale(0.086 -0.086)">
     <defs>
      <path id="DejaVuSans-47" d="M 3809 666 
L 3809 1919 
L 2778 1919 
L 2778 2438 
L 4434 2438 
L 4434 434 
Q 4069 175 3628 42 
Q 3188 -91 2688 -91 
Q 1594 -91 976 548 
Q 359 1188 359 2328 
Q 359 3472 976 4111 
Q 1594 4750 2688 4750 
Q 3144 4750 3555 4637 
Q 3966 4525 4313 4306 
L 4313 3634 
Q 3963 3931 3569 4081 
Q 3175 4231 2741 4231 
Q 1884 4231 1454 3753 
Q 1025 3275 1025 2328 
Q 1025 1384 1454 906 
Q 1884 428 2741 428 
Q 3075 428 3337 486 
Q 3600 544 3809 666 
z
" transform="scale(0.015625)"/>
      <path id="DejaVuSans-76" d="M 191 3500 
L 800 3500 
L 1894 563 
L 2988 3500 
L 3597 3500 
L 2284 0 
L 1503 0 
L 191 3500 
z
" transform="scale(0.015625)"/>
     </defs>
     <use xlink:href="#DejaVuSans-47"/>
     <use xlink:href="#DejaVuSans-61" transform="translate(77.490234 0)"/>
     <use xlink:href="#DejaVuSans-69" transform="translate(138.769531 0)"/>
     <use xlink:href="#DejaVuSans-6e" transform="translate(166.552734 0)"/>
     <use xlink:href="#DejaVuSans-20" transform="translate(229.931641 0)"/>
     <use xlink:href="#DejaVuSans-65" transform="translate(261.71875 0)"/>
     <use xlink:href="#DejaVuSans-6e" transform="translate(323.242188 0)"/>
     <use xlink:href="#DejaVuSans-76" transform="translate(386.621094 0)"/>
     <use xlink:href="#DejaVuSans-65" transform="translate(445.800781 0)"/>
     <use xlink:href="#DejaVuSans-6c" transform="translate(507.324219 0)"/>
     <use xlink:href="#DejaVuSans-6f" transform="translate(535.107422 0)"/>
     <use xlink:href="#DejaVuSans-70" transform="translate(596.289062 0)"/>
     <use xlink:href="#DejaVuSans-65" transform="translate(659.765625 0)"/>
    </g>
    <!-- $\bar{g}_{\Lambda}$ -->
    <g transform="translate(742.191375 95.078754) scale(0.086 -0.086)">
     <use xlink:href="#DejaVuSans-304" transform="translate(64.212891 1.484375)"/>
     <use xlink:href="#DejaVuSans-Oblique-67" transform="translate(0 0.265625)"/>
     <use xlink:href="#DejaVuSans-39b" transform="translate(64.433594 -16.140625) scale(0.7)"/>
    </g>
   </g>
   <g id="text_15">
    <!-- $z_{\Lambda}=M_{\mathrm{soft}}\odot\dfrac{\bar{e}_{\Lambda}}{\bar{g}_{\Lambda}+\varepsilon}$ -->
    <g transform="translate(586.7545 192.944) scale(0.104 -0.104)">
     <defs>
      <path id="DejaVuSans-Oblique-7a" d="M 744 3500 
L 3475 3500 
L 3372 2975 
L 738 459 
L 2913 459 
L 2822 0 
L -19 0 
L 84 525 
L 2719 3041 
L 653 3041 
L 744 3500 
z
" transform="scale(0.015625)"/>
      <path id="DejaVuSans-Oblique-4d" d="M 1081 4666 
L 2028 4666 
L 2572 1522 
L 4378 4666 
L 5350 4666 
L 4441 0 
L 3828 0 
L 4622 4091 
L 2791 897 
L 2175 897 
L 1581 4103 
L 788 0 
L 172 0 
L 1081 4666 
z
" transform="scale(0.015625)"/>
      <path id="DejaVuSans-66" d="M 2375 4863 
L 2375 4384 
L 1825 4384 
Q 1516 4384 1395 4259 
Q 1275 4134 1275 3809 
L 1275 3500 
L 2222 3500 
L 2222 3053 
L 1275 3053 
L 1275 0 
L 697 0 
L 697 3053 
L 147 3053 
L 147 3500 
L 697 3500 
L 697 3744 
Q 697 4328 969 4595 
Q 1241 4863 1831 4863 
L 2375 4863 
z
" transform="scale(0.015625)"/>
      <path id="DejaVuSans-2299" d="M 2350 2403 
L 3013 2403 
L 3013 1609 
L 2350 1609 
L 2350 2403 
z
M 3306 3522 
Q 3016 3644 2681 3644 
Q 2347 3644 2056 3522 
Q 1769 3400 1531 3163 
Q 1291 2922 1172 2634 
Q 1053 2347 1053 2006 
Q 1053 1675 1172 1387 
Q 1291 1100 1531 859 
Q 1769 622 2056 500 
Q 2347 378 2681 378 
Q 3016 378 3306 500 
Q 3594 622 3831 859 
Q 4072 1100 4190 1387 
Q 4309 1675 4309 2006 
Q 4309 2347 4190 2634 
Q 4072 2922 3831 3163 
Q 3594 3400 3306 3522 
z
M 1878 3956 
Q 2250 4113 2681 4113 
Q 3113 4113 3484 3956 
Q 3856 3800 4163 3494 
Q 4472 3184 4625 2813 
Q 4778 2444 4778 2006 
Q 4778 1578 4625 1206 
Q 4472 838 4163 528 
Q 3856 222 3484 65 
Q 3113 -91 2681 -91 
Q 2250 -91 1878 65 
Q 1506 222 1200 528 
Q 891 838 738 1206 
Q 584 1578 584 2006 
Q 584 2444 738 2813 
Q 891 3184 1200 3494 
Q 1506 3800 1878 3956 
z
" transform="scale(0.015625)"/>
      <path id="DejaVuSans-2b" d="M 2944 4013 
L 2944 2272 
L 4684 2272 
L 4684 1741 
L 2944 1741 
L 2944 0 
L 2419 0 
L 2419 1741 
L 678 1741 
L 678 2272 
L 2419 2272 
L 2419 4013 
L 2944 4013 
z
" transform="scale(0.015625)"/>
      <path id="DejaVuSans-Oblique-3b5" d="M 1263 1888 
Q 925 1963 778 2166 
Q 669 2309 669 2503 
Q 669 3034 1175 3344 
Q 1575 3588 2188 3588 
Q 2425 3588 2684 3550 
Q 2944 3513 3234 3438 
L 3134 2916 
Q 2847 3006 2606 3047 
Q 2359 3088 2138 3088 
Q 1766 3088 1522 2944 
Q 1228 2772 1228 2522 
Q 1228 2356 1381 2241 
Q 1563 2103 1925 2103 
L 2409 2103 
L 2319 1628 
L 1856 1628 
Q 1425 1628 1172 1469 
Q 828 1253 828 916 
Q 828 703 1013 563 
Q 1244 388 1716 388 
Q 2006 388 2284 444 
Q 2563 503 2806 619 
L 2700 84 
Q 2403 -3 2131 -47 
Q 1859 -91 1609 -91 
Q 866 -91 516 194 
Q 250 413 250 781 
Q 250 1278 600 1584 
Q 859 1813 1263 1888 
z
" transform="scale(0.015625)"/>
     </defs>
     <use xlink:href="#DejaVuSans-Oblique-7a" transform="translate(0 0.0625)"/>
     <use xlink:href="#DejaVuSans-39b" transform="translate(52.490234 -16.34375) scale(0.7)"/>
     <use xlink:href="#DejaVuSans-3d" transform="translate(122.592773 0.0625)"/>
     <use xlink:href="#DejaVuSans-Oblique-4d" transform="translate(225.864258 0.0625)"/>
     <use xlink:href="#DejaVuSans-73" transform="translate(312.143555 -16.34375) scale(0.7)"/>
     <use xlink:href="#DejaVuSans-6f" transform="translate(348.613281 -16.34375) scale(0.7)"/>
     <use xlink:href="#DejaVuSans-66" transform="translate(391.44043 -16.34375) scale(0.7)"/>
     <use xlink:href="#DejaVuSans-74" transform="translate(416.083984 -16.34375) scale(0.7)"/>
     <use xlink:href="#DejaVuSans-2299" transform="translate(465.74707 0.0625)"/>
     <use xlink:href="#DejaVuSans-304" transform="translate(720.743164 61.484375)"/>
     <use xlink:href="#DejaVuSans-Oblique-65" transform="translate(658.018555 60.265625)"/>
     <use xlink:href="#DejaVuSans-39b" transform="translate(720.499023 43.859375) scale(0.7)"/>
     <use xlink:href="#DejaVuSans-304" transform="translate(633.231445 -61.90625)"/>
     <use xlink:href="#DejaVuSans-Oblique-67" transform="translate(569.018555 -63.125)"/>
     <use xlink:href="#DejaVuSans-39b" transform="translate(633.452148 -79.53125) scale(0.7)"/>
     <use xlink:href="#DejaVuSans-2b" transform="translate(703.554688 -63.125)"/>
     <use xlink:href="#DejaVuSans-Oblique-3b5" transform="translate(806.826172 -63.125)"/>
     <path d="M 569.018555 18.859375 
L 569.018555 25.109375 
L 860.878906 25.109375 
L 860.878906 18.859375 
L 569.018555 18.859375 
z
"/>
    </g>
   </g>
   <g id="text_16">
    <!-- Soft support -->
    <g transform="translate(863.617591 188.084745) scale(0.085 -0.085)">
     <use xlink:href="#DejaVuSans-53"/>
     <use xlink:href="#DejaVuSans-6f" transform="translate(63.476562 0)"/>
     <use xlink:href="#DejaVuSans-66" transform="translate(124.658203 0)"/>
     <use xlink:href="#DejaVuSans-74" transform="translate(158.113281 0)"/>
     <use xlink:href="#DejaVuSans-20" transform="translate(197.322266 0)"/>
     <use xlink:href="#DejaVuSans-73" transform="translate(229.109375 0)"/>
     <use xlink:href="#DejaVuSans-75" transform="translate(281.208984 0)"/>
     <use xlink:href="#DejaVuSans-70" transform="translate(344.587891 0)"/>
     <use xlink:href="#DejaVuSans-70" transform="translate(408.064453 0)"/>
     <use xlink:href="#DejaVuSans-6f" transform="translate(471.541016 0)"/>
     <use xlink:href="#DejaVuSans-72" transform="translate(532.722656 0)"/>
     <use xlink:href="#DejaVuSans-74" transform="translate(573.835938 0)"/>
    </g>
    <!-- $M_{\mathrm{soft}}$ -->
    <g transform="translate(880.279583 197.086192) scale(0.085 -0.085)">
     <use xlink:href="#DejaVuSans-Oblique-4d" transform="translate(0 0.09375)"/>
     <use xlink:href="#DejaVuSans-73" transform="translate(86.279297 -16.3125) scale(0.7)"/>
     <use xlink:href="#DejaVuSans-6f" transform="translate(122.749023 -16.3125) scale(0.7)"/>
     <use xlink:href="#DejaVuSans-66" transform="translate(165.576172 -16.3125) scale(0.7)"/>
     <use xlink:href="#DejaVuSans-74" transform="translate(190.219727 -16.3125) scale(0.7)"/>
    </g>
   </g>
   <g id="text_17">
    <!-- Robust scale -->
    <g transform="translate(524.050932 278.931197) scale(0.087 -0.087)">
     <use xlink:href="#DejaVuSans-52"/>
     <use xlink:href="#DejaVuSans-6f" transform="translate(64.982422 0)"/>
     <use xlink:href="#DejaVuSans-62" transform="translate(126.164062 0)"/>
     <use xlink:href="#DejaVuSans-75" transform="translate(189.640625 0)"/>
     <use xlink:href="#DejaVuSans-73" transform="translate(253.019531 0)"/>
     <use xlink:href="#DejaVuSans-74" transform="translate(305.119141 0)"/>
     <use xlink:href="#DejaVuSans-20" transform="translate(344.328125 0)"/>
     <use xlink:href="#DejaVuSans-73" transform="translate(376.115234 0)"/>
     <use xlink:href="#DejaVuSans-63" transform="translate(428.214844 0)"/>
     <use xlink:href="#DejaVuSans-61" transform="translate(483.195312 0)"/>
     <use xlink:href="#DejaVuSans-6c" transform="translate(544.474609 0)"/>
     <use xlink:href="#DejaVuSans-65" transform="translate(572.257812 0)"/>
    </g>
    <!-- $Q_{99,\Lambda}$ -->
    <g transform="translate(540.527917 288.144443) scale(0.087 -0.087)">
     <defs>
      <path id="DejaVuSans-Oblique-51" d="M 2309 -84 
Q 2275 -88 2237 -89 
Q 2200 -91 2125 -91 
Q 1250 -91 756 411 
Q 263 913 263 1797 
Q 263 2319 452 2844 
Q 641 3369 978 3788 
Q 1369 4269 1858 4509 
Q 2347 4750 2938 4750 
Q 3794 4750 4287 4245 
Q 4781 3741 4781 2869 
Q 4781 1928 4265 1147 
Q 3750 366 2919 44 
L 3553 -825 
L 2847 -825 
L 2309 -84 
z
M 2919 4238 
Q 2400 4238 2003 3986 
Q 1606 3734 1313 3219 
Q 1125 2891 1026 2522 
Q 928 2153 928 1778 
Q 928 1128 1239 775 
Q 1550 422 2119 422 
Q 2631 422 3032 676 
Q 3434 931 3719 1434 
Q 3909 1772 4009 2142 
Q 4109 2513 4109 2881 
Q 4109 3528 3796 3883 
Q 3484 4238 2919 4238 
z
" transform="scale(0.015625)"/>
      <path id="DejaVuSans-39" d="M 703 97 
L 703 672 
Q 941 559 1184 500 
Q 1428 441 1663 441 
Q 2288 441 2617 861 
Q 2947 1281 2994 2138 
Q 2813 1869 2534 1725 
Q 2256 1581 1919 1581 
Q 1219 1581 811 2004 
Q 403 2428 403 3163 
Q 403 3881 828 4315 
Q 1253 4750 1959 4750 
Q 2769 4750 3195 4129 
Q 3622 3509 3622 2328 
Q 3622 1225 3098 567 
Q 2575 -91 1691 -91 
Q 1453 -91 1209 -44 
Q 966 3 703 97 
z
M 1959 2075 
Q 2384 2075 2632 2365 
Q 2881 2656 2881 3163 
Q 2881 3666 2632 3958 
Q 2384 4250 1959 4250 
Q 1534 4250 1286 3958 
Q 1038 3666 1038 3163 
Q 1038 2656 1286 2365 
Q 1534 2075 1959 2075 
z
" transform="scale(0.015625)"/>
     </defs>
     <use xlink:href="#DejaVuSans-Oblique-51" transform="translate(0 0.78125)"/>
     <use xlink:href="#DejaVuSans-39" transform="translate(78.710938 -15.625) scale(0.7)"/>
     <use xlink:href="#DejaVuSans-39" transform="translate(123.24707 -15.625) scale(0.7)"/>
     <use xlink:href="#DejaVuSans-2c" transform="translate(167.783203 -15.625) scale(0.7)"/>
     <use xlink:href="#DejaVuSans-39b" transform="translate(203.671875 -15.625) scale(0.7)"/>
    </g>
   </g>
   <g id="text_18">
    <!-- Log-compressed target -->
    <g transform="translate(700.541604 275.014275) scale(0.084 -0.084)">
     <use xlink:href="#DejaVuSans-4c"/>
     <use xlink:href="#DejaVuSans-6f" transform="translate(53.962891 0)"/>
     <use xlink:href="#DejaVuSans-67" transform="translate(115.144531 0)"/>
     <use xlink:href="#DejaVuSans-2d" transform="translate(178.621094 0)"/>
     <use xlink:href="#DejaVuSans-63" transform="translate(214.705078 0)"/>
     <use xlink:href="#DejaVuSans-6f" transform="translate(269.685547 0)"/>
     <use xlink:href="#DejaVuSans-6d" transform="translate(330.867188 0)"/>
     <use xlink:href="#DejaVuSans-70" transform="translate(428.279297 0)"/>
     <use xlink:href="#DejaVuSans-72" transform="translate(491.755859 0)"/>
     <use xlink:href="#DejaVuSans-65" transform="translate(530.619141 0)"/>
     <use xlink:href="#DejaVuSans-73" transform="translate(592.142578 0)"/>
     <use xlink:href="#DejaVuSans-73" transform="translate(644.242188 0)"/>
     <use xlink:href="#DejaVuSans-65" transform="translate(696.341797 0)"/>
     <use xlink:href="#DejaVuSans-64" transform="translate(757.865234 0)"/>
     <use xlink:href="#DejaVuSans-20" transform="translate(821.341797 0)"/>
     <use xlink:href="#DejaVuSans-74" transform="translate(853.128906 0)"/>
     <use xlink:href="#DejaVuSans-61" transform="translate(892.337891 0)"/>
     <use xlink:href="#DejaVuSans-72" transform="translate(953.617188 0)"/>
     <use xlink:href="#DejaVuSans-67" transform="translate(992.980469 0)"/>
     <use xlink:href="#DejaVuSans-65" transform="translate(1056.457031 0)"/>
     <use xlink:href="#DejaVuSans-74" transform="translate(1117.980469 0)"/>
    </g>
    <!-- $u_{\Lambda}=\log(1+\alpha\,\dfrac{z_{\Lambda}}{Q_{99,\Lambda}+\varepsilon})$ -->
    <g transform="translate(699.584792 287.580412) scale(0.084 -0.084)">
     <defs>
      <path id="DejaVuSans-Oblique-75" d="M 428 1388 
L 838 3500 
L 1416 3500 
L 1006 1409 
Q 975 1256 961 1147 
Q 947 1038 947 966 
Q 947 700 1109 554 
Q 1272 409 1569 409 
Q 2031 409 2368 721 
Q 2706 1034 2809 1563 
L 3194 3500 
L 3769 3500 
L 3091 0 
L 2516 0 
L 2631 550 
Q 2388 244 2052 76 
Q 1716 -91 1338 -91 
Q 878 -91 622 161 
Q 366 413 366 863 
Q 366 956 381 1097 
Q 397 1238 428 1388 
z
" transform="scale(0.015625)"/>
      <path id="DejaVuSans-31" d="M 794 531 
L 1825 531 
L 1825 4091 
L 703 3866 
L 703 4441 
L 1819 4666 
L 2450 4666 
L 2450 531 
L 3481 531 
L 3481 0 
L 794 0 
L 794 531 
z
" transform="scale(0.015625)"/>
      <path id="DejaVuSans-Oblique-3b1" d="M 2619 1628 
L 2622 2350 
Q 2625 3088 2069 3091 
Q 1653 3094 1394 2747 
Q 1069 2319 959 1747 
Q 825 1059 994 731 
Q 1169 397 1547 397 
Q 1966 397 2319 1063 
L 2619 1628 
z
M 2166 3578 
Q 3141 3594 3128 2584 
Q 3128 2584 3616 3500 
L 4128 3500 
L 3119 1603 
L 3109 919 
Q 3109 766 3194 638 
Q 3291 488 3391 488 
L 3669 488 
L 3575 0 
L 3228 0 
Q 2934 0 2722 263 
Q 2622 394 2619 669 
Q 2416 334 2066 50 
Q 1900 -81 1453 -78 
Q 722 -72 456 397 
Q 184 884 353 1747 
Q 534 2675 1009 3097 
Q 1544 3569 2166 3578 
z
" transform="scale(0.015625)"/>
     </defs>
     <use xlink:href="#DejaVuSans-Oblique-75" transform="translate(0 0.109375)"/>
     <use xlink:href="#DejaVuSans-39b" transform="translate(63.378906 -16.296875) scale(0.7)"/>
     <use xlink:href="#DejaVuSans-3d" transform="translate(133.481445 0.109375)"/>
     <use xlink:href="#DejaVuSans-6c" transform="translate(236.75293 0.109375)"/>
     <use xlink:href="#DejaVuSans-6f" transform="translate(264.536133 0.109375)"/>
     <use xlink:href="#DejaVuSans-67" transform="translate(325.717773 0.109375)"/>
     <use xlink:href="#DejaVuSans-28" transform="translate(389.194336 0.109375)"/>
     <use xlink:href="#DejaVuSans-31" transform="translate(428.208008 0.109375)"/>
     <use xlink:href="#DejaVuSans-2b" transform="translate(511.313477 0.109375)"/>
     <use xlink:href="#DejaVuSans-Oblique-3b1" transform="translate(614.584961 0.109375)"/>
     <use xlink:href="#DejaVuSans-Oblique-7a" transform="translate(860.738606 60.3125)"/>
     <use xlink:href="#DejaVuSans-39b" transform="translate(913.22884 43.90625) scale(0.7)"/>
     <use xlink:href="#DejaVuSans-Oblique-51" transform="translate(696.738606 -61.5625)"/>
     <use xlink:href="#DejaVuSans-39" transform="translate(775.449543 -77.96875) scale(0.7)"/>
     <use xlink:href="#DejaVuSans-39" transform="translate(819.985676 -77.96875) scale(0.7)"/>
     <use xlink:href="#DejaVuSans-2c" transform="translate(864.521809 -77.96875) scale(0.7)"/>
     <use xlink:href="#DejaVuSans-39b" transform="translate(900.410481 -77.96875) scale(0.7)"/>
     <use xlink:href="#DejaVuSans-2b" transform="translate(970.51302 -61.5625)"/>
     <use xlink:href="#DejaVuSans-Oblique-3b5" transform="translate(1073.784504 -61.5625)"/>
     <use xlink:href="#DejaVuSans-29" transform="translate(1140.337239 0.109375)"/>
     <path d="M 696.738606 18.90625 
L 696.738606 25.15625 
L 1127.837239 25.15625 
L 1127.837239 18.90625 
L 696.738606 18.90625 
z
"/>
    </g>
   </g>
  </g>
 </g>
 <defs>
  <clipPath id="pc366ead9a7">
   <rect x="7.2" y="7.2" width="943.4" height="327.8"/>
  </clipPath>
 </defs>
</svg>
